<?xml version="1.0" standalone="no"?>
<!DOCTYPE svg PUBLIC "-//W3C//DTD SVG 20010904//EN"
 "http://www.w3.org/TR/2001/REC-SVG-20010904/DTD/svg10.dtd">
<svg version="1.0" xmlns="http://www.w3.org/2000/svg"
 width="360.000000pt" height="360.000000pt" viewBox="0 0 360.000000 360.000000"
 preserveAspectRatio="xMidYMid meet">
<metadata>
Created by potrace 1.14, written by Peter Selinger 2001-2017
</metadata>
<g transform="translate(0.000000,360.000000) scale(0.100000,-0.100000)"
fill="#000000" stroke="none">
<path d="M1375 3530 c-55 -17 -108 -32 -118 -35 -10 -2 -41 -15 -70 -28 -29
-13 -72 -32 -97 -42 -72 -29 -204 -93 -220 -107 -9 -7 -32 -34 -51 -60 -86
-112 -142 -161 -234 -203 -131 -59 -168 -81 -196 -116 -16 -20 -29 -41 -29
-46 0 -5 -8 -18 -18 -29 -9 -10 -23 -31 -31 -46 -8 -15 -18 -25 -23 -22 -5 3
-7 2 -6 -3 4 -13 -24 -73 -34 -73 -6 0 -7 -7 -4 -15 3 -9 -1 -18 -9 -21 -8 -4
-12 -10 -9 -15 3 -5 1 -9 -4 -9 -5 0 -9 -6 -9 -12 0 -7 -12 -39 -27 -70 -14
-31 -26 -63 -26 -71 0 -7 -3 -17 -7 -21 -4 -4 -9 -19 -11 -34 -2 -15 -9 -30
-15 -34 -6 -4 -9 -10 -5 -13 3 -3 0 -33 -8 -65 -45 -194 -34 -481 27 -720 24
-94 52 -185 59 -195 4 -5 15 -32 25 -60 10 -27 29 -69 43 -93 13 -24 22 -46
18 -49 -3 -3 6 -19 19 -35 14 -16 22 -35 19 -40 -4 -6 -2 -8 3 -5 6 4 18 -9
27 -28 9 -19 21 -35 27 -35 6 0 8 -4 5 -9 -4 -5 -3 -11 1 -13 20 -8 132 -162
126 -172 -3 -6 -3 -8 2 -4 9 8 201 -172 197 -185 -1 -4 2 -6 7 -5 5 2 46 -24
92 -57 46 -33 101 -69 121 -80 20 -10 35 -22 32 -27 -3 -4 1 -5 9 -2 8 3 20
-2 27 -11 7 -8 20 -15 29 -15 9 0 21 -4 26 -9 22 -20 106 -60 139 -67 20 -3
36 -10 36 -15 0 -5 3 -8 8 -7 4 1 25 -4 46 -10 35 -10 44 -9 73 9 18 11 33 25
33 30 0 5 8 13 18 16 21 9 51 44 52 61 0 12 -38 69 -67 100 -7 7 -13 18 -13
23 0 5 -12 22 -26 37 -28 30 -59 83 -56 95 1 5 -1 6 -6 3 -4 -2 -21 15 -37 39
-17 25 -33 45 -37 45 -5 0 -8 4 -8 9 0 6 -13 25 -30 43 -16 18 -30 36 -30 41
0 5 -11 23 -25 41 -14 18 -22 36 -17 41 4 5 2 6 -3 2 -11 -5 -72 91 -67 105 1
5 -2 8 -6 8 -10 0 -121 234 -128 270 0 3 -6 17 -11 31 -6 14 -14 39 -17 55 -2
16 -9 45 -15 64 -6 19 -12 46 -15 60 -3 14 -13 52 -22 85 -37 132 -8 329 66
454 16 29 30 54 30 56 0 10 47 62 111 125 70 69 74 71 129 110 44 31 60 46 54
52 -3 3 6 4 18 1 13 -2 59 7 102 21 44 14 83 23 88 20 4 -3 8 -1 8 5 0 5 8 10
18 10 9 0 44 3 77 8 107 14 455 9 455 -7 0 -5 9 -6 20 -3 11 3 20 1 20 -5 0
-5 17 -10 38 -10 61 -1 320 -105 352 -142 3 -3 18 -11 34 -18 50 -22 203 -156
198 -173 -1 -5 2 -8 7 -7 13 4 102 -112 95 -123 -3 -5 -1 -9 4 -9 5 0 20 -21
32 -47 13 -27 29 -59 36 -74 7 -14 15 -38 18 -55 2 -16 5 -29 6 -29 9 0 24
-128 24 -200 -1 -110 -75 -355 -179 -590 -14 -33 -29 -68 -32 -77 -3 -10 -9
-18 -14 -18 -5 0 -8 -3 -7 -7 3 -12 -46 -113 -54 -113 -5 0 -8 -7 -8 -16 0 -8
-11 -30 -25 -48 -14 -18 -25 -36 -25 -39 0 -6 -42 -73 -59 -93 -5 -6 -12 -20
-15 -32 -4 -12 -12 -22 -17 -22 -5 0 -9 -5 -9 -10 0 -18 -67 -109 -75 -102 -5
4 -5 2 -2 -4 4 -7 -5 -33 -19 -58 -19 -33 -22 -46 -12 -47 63 -7 80 -6 84 6 3
7 14 11 25 8 10 -3 19 0 19 6 0 6 5 11 11 11 6 0 33 11 61 25 27 14 58 25 69
25 10 0 19 5 19 10 0 6 5 10 11 10 11 0 190 120 219 147 8 7 26 23 40 34 60
49 110 102 104 111 -4 6 -17 -2 -31 -18 -13 -16 -22 -24 -19 -18 3 7 -1 15
-10 18 -12 4 -14 1 -9 -14 4 -12 2 -20 -5 -20 -6 0 -8 -6 -4 -12 4 -7 4 -10
-1 -6 -11 11 -47 -11 -39 -24 4 -6 3 -8 -4 -4 -6 3 -13 2 -17 -4 -4 -6 -10 -8
-15 -5 -4 3 -10 -2 -13 -9 -3 -8 -16 -20 -28 -26 -12 -7 -19 -8 -15 -2 3 6 0
13 -6 16 -7 3 -2 3 12 0 14 -4 22 -3 18 1 -10 10 11 47 22 40 5 -3 16 5 24 17
11 15 16 18 17 8 0 -13 1 -13 7 0 17 36 45 59 63 50 12 -7 19 -5 23 6 5 12 2
15 -10 10 -24 -9 -11 17 15 30 12 6 22 15 21 19 -1 3 2 10 6 13 4 4 4 2 1 -4
-4 -7 -1 -14 7 -17 10 -4 12 0 8 15 -3 13 1 24 12 30 9 5 14 13 11 18 -3 5 8
19 24 32 15 13 36 35 46 50 9 15 21 25 26 22 5 -3 6 1 3 9 -3 8 0 18 7 23 8 5
10 3 4 -6 -5 -9 -4 -11 3 -6 7 4 12 13 12 20 0 21 35 60 47 53 8 -5 8 -14 0
-31 -13 -27 -29 -25 -21 2 5 13 4 14 -4 3 -5 -8 -9 -24 -7 -37 1 -13 -2 -21
-7 -18 -5 3 -12 -4 -15 -15 -3 -12 -12 -20 -21 -19 -8 2 -17 -4 -19 -12 -4
-12 -3 -12 5 -1 7 9 12 10 16 2 4 -6 2 -11 -4 -11 -6 0 -15 -12 -20 -26 -9
-23 -12 -24 -27 -13 -15 13 -15 12 -5 -7 9 -17 5 -25 -31 -60 -23 -21 -46 -38
-50 -36 -5 1 -7 -3 -5 -10 11 -33 25 -23 123 87 129 144 245 329 295 470 11
33 25 68 30 77 9 17 38 134 59 238 45 227 29 471 -46 720 -36 121 -50 143
-155 250 -115 117 -156 166 -215 255 -48 72 -113 203 -113 227 0 19 -51 69
-124 123 -33 25 -66 50 -73 55 -7 6 -17 10 -23 10 -5 0 -10 4 -10 9 0 5 -8 11
-17 14 -10 4 -45 21 -78 40 -33 18 -71 39 -85 47 -14 8 -29 15 -35 16 -5 1
-44 17 -85 34 -41 17 -84 33 -95 35 -11 1 -35 6 -53 9 -19 4 -42 1 -55 -6 -12
-6 -30 -12 -40 -13 -21 -2 -43 -22 -34 -31 3 -3 17 -7 30 -8 14 0 23 -4 21 -8
-2 -4 0 -9 6 -13 5 -3 10 -11 10 -17 0 -7 -6 -6 -15 2 -8 7 -15 10 -15 6 0 -3
-12 -1 -27 5 -40 15 -260 60 -311 64 -24 1 -49 9 -55 16 -10 11 -9 11 6 0 9
-7 17 -9 17 -4 0 6 11 8 25 5 14 -2 25 0 25 6 0 5 -8 9 -17 9 -47 0 -64 4 -58
13 3 6 -1 7 -9 4 -9 -3 -13 -11 -10 -18 3 -6 -2 -2 -10 8 -9 11 -16 16 -16 12
0 -5 -8 -2 -17 5 -15 12 -16 12 -8 -1 7 -12 6 -13 -6 -4 -8 6 -61 11 -124 12
-95 1 -123 -3 -210 -28z m-287 -255 c-3 -3 -9 2 -12 12 -6 14 -5 15 5 6 7 -7
10 -15 7 -18z m-41 0 c0 -8 -4 -12 -9 -9 -5 3 -6 10 -3 15 9 13 12 11 12 -6z
m360 -3 c0 -10 -6 -19 -13 -19 -9 0 -9 5 -1 19 7 10 13 18 14 18 1 0 1 -8 0
-18z m-462 -12 c-3 -5 -12 -10 -18 -10 -7 0 -6 4 3 10 19 12 23 12 15 0z m133
-15 c-3 -3 -9 2 -12 12 -6 14 -5 15 5 6 7 -7 10 -15 7 -18z m52 5 c-6 -11 -13
-20 -16 -20 -2 0 0 9 6 20 6 11 13 20 16 20 2 0 0 -9 -6 -20z m414 12 c2 -4
-5 -9 -17 -9 -17 -2 -19 0 -7 7 18 12 18 12 24 2z m-538 -39 c22 -25 24 -50 3
-37 -5 3 -6 10 -3 16 5 8 1 9 -10 5 -10 -4 -15 -3 -11 4 4 5 1 16 -5 24 -7 8
-9 15 -5 15 4 0 18 -12 31 -27z m27 15 c4 -10 8 -9 16 2 6 8 11 10 11 5 0 -6
-5 -16 -12 -23 -16 -16 4 -16 22 1 12 10 12 9 1 -5 -18 -24 -26 -23 -45 7 -9
14 -12 25 -7 25 5 0 12 -6 14 -12z m229 -7 c-5 -14 -4 -14 12 -2 9 8 16 10 14
5 -2 -5 7 -20 20 -34 25 -27 30 -55 7 -47 -8 4 -17 2 -20 -3 -4 -6 -3 -11 2
-11 4 -1 19 -3 33 -6 14 -2 33 -4 43 -4 9 0 17 -4 17 -10 0 -5 5 -9 10 -9 5 0
9 6 8 13 -2 7 6 11 19 10 11 -1 26 4 33 12 6 7 19 11 27 8 10 -4 14 -2 10 4
-4 6 0 14 9 17 8 3 12 10 9 16 -3 5 0 7 8 4 12 -4 10 -10 -9 -31 -13 -14 -28
-22 -35 -18 -7 5 -10 3 -7 -5 2 -8 14 -14 26 -15 38 -3 35 -13 -5 -14 -21 -1
-47 -2 -58 -2 -13 -1 -21 -9 -22 -21 -2 -16 1 -17 13 -8 8 7 14 9 14 6 0 -4
10 -2 21 5 15 8 19 8 15 0 -4 -6 0 -11 9 -11 9 0 13 5 10 10 -3 6 -1 10 4 10
6 0 11 -5 11 -12 0 -6 8 -4 20 7 10 9 19 20 18 24 0 3 0 13 1 21 1 13 2 13 11
0 5 -9 5 -19 -2 -27 -6 -8 -7 -17 -3 -21 4 -4 10 -1 12 6 3 6 9 12 14 12 5 0
4 -9 -3 -19 -9 -15 -15 -17 -25 -9 -20 16 -28 1 -9 -17 9 -9 16 -21 16 -27 0
-6 -8 0 -18 11 -22 28 -93 38 -86 12 5 -13 3 -13 -6 2 -11 17 -30 15 -30 -4 0
-6 4 -7 10 -4 6 4 7 -1 3 -12 -3 -10 -2 -15 2 -10 5 4 17 0 27 -9 14 -14 20
-14 33 -4 12 10 13 16 4 26 -8 10 -8 14 0 14 6 0 11 -5 11 -11 0 -5 5 -7 11
-4 6 4 5 -2 -3 -14 -7 -12 -16 -21 -20 -21 -5 0 -8 -6 -8 -14 0 -22 -19 -29
-36 -15 -12 10 -21 6 -49 -24 -35 -37 -55 -46 -55 -26 0 5 4 8 9 5 5 -3 14 1
21 10 10 11 10 18 2 26 -16 16 -44 19 -39 5 3 -7 10 -11 16 -9 6 1 11 -3 11
-8 0 -12 -17 -13 -24 -1 -3 5 -14 11 -25 14 -14 3 -18 1 -14 -9 3 -7 10 -12
16 -11 7 1 12 -5 12 -13 0 -8 4 -21 8 -27 5 -8 4 -13 -2 -13 -6 0 -11 5 -11
11 0 5 -6 7 -12 3 -9 -5 -8 -2 1 9 20 25 8 31 -13 8 -17 -19 -17 -20 2 -32 11
-7 18 -19 15 -26 -3 -8 0 -13 8 -11 8 2 14 -6 15 -19 1 -12 -3 -20 -7 -17 -5
3 -9 0 -9 -5 0 -8 -7 -7 -20 1 -15 10 -17 14 -6 20 23 13 8 46 -20 44 -13 0
-22 -5 -20 -11 2 -5 11 -9 20 -9 9 1 16 -2 16 -7 0 -13 -24 -11 -39 4 -11 10
-12 7 -6 -13 7 -25 7 -25 -10 -5 -13 16 -15 16 -11 3 2 -9 -2 -22 -9 -28 -15
-13 -11 -30 6 -30 6 0 8 4 4 9 -9 15 15 25 28 12 9 -9 8 -11 -4 -6 -12 4 -15
-1 -14 -22 1 -15 7 -38 14 -50 6 -13 8 -23 4 -23 -4 0 -1 -5 7 -11 10 -7 11
-9 2 -7 -8 2 -12 6 -11 8 1 3 -4 16 -11 30 -8 14 -13 31 -11 39 1 7 -2 10 -7
7 -6 -3 -12 1 -16 9 -3 8 -11 15 -17 15 -8 0 -8 -4 1 -15 10 -12 10 -19 2 -27
-9 -9 -15 -7 -25 6 -11 15 -18 17 -33 8 -10 -6 -15 -12 -10 -12 5 0 3 -7 -4
-15 -11 -13 -8 -15 23 -11 23 3 40 0 47 -10 8 -9 9 -14 2 -14 -6 0 -12 6 -15
13 -3 9 -9 8 -22 -4 -11 -11 -13 -19 -6 -23 6 -4 11 -2 11 5 0 8 4 8 16 -1 12
-11 18 -10 32 5 13 13 14 19 5 22 -7 3 -13 9 -13 15 0 6 6 6 15 -2 8 -7 15
-16 15 -20 0 -14 -37 -49 -45 -42 -5 4 -5 -1 -2 -10 4 -13 2 -15 -10 -11 -11
4 -14 2 -9 -5 5 -8 1 -10 -10 -5 -12 4 -15 3 -10 -5 7 -12 -5 -16 -32 -13 -10
2 -10 -2 -1 -17 12 -19 13 -19 32 -1 12 10 23 17 25 14 12 -11 -44 -42 -70
-39 -16 2 -27 0 -24 -5 8 -12 -41 -54 -66 -56 -13 -1 -22 -8 -20 -14 1 -7 -2
-10 -8 -6 -6 3 -8 11 -5 16 4 5 2 9 -3 9 -16 0 -22 -13 -11 -26 8 -10 3 -17
-21 -29 -18 -9 -28 -21 -24 -27 4 -7 3 -8 -4 -4 -7 4 -12 2 -12 -3 0 -6 6 -11
13 -12 9 0 9 -2 -1 -6 -6 -2 -9 -10 -5 -16 3 -7 3 -9 -2 -5 -4 4 -16 -4 -27
-17 -11 -14 -24 -23 -29 -20 -5 4 -9 -1 -9 -10 0 -11 -5 -15 -15 -12 -8 4 -17
2 -20 -3 -4 -6 0 -10 7 -10 7 -1 3 -6 -10 -13 -12 -7 -20 -16 -17 -20 2 -4 0
-3 -6 2 -14 11 -41 3 -33 -10 3 -5 11 -6 17 -2 7 3 5 -2 -4 -13 -9 -10 -19
-27 -22 -37 -9 -24 -29 -17 -34 12 -2 18 1 21 15 17 12 -4 19 -1 19 8 0 12
-45 18 -48 6 -7 -29 -5 -69 3 -67 6 1 13 -5 15 -13 4 -13 3 -13 -6 0 -6 8 -11
11 -12 5 -3 -33 -10 -49 -23 -57 -9 -5 -13 -15 -9 -25 5 -12 2 -15 -9 -10 -24
9 -30 -4 -10 -19 15 -12 14 -12 -8 -8 -23 5 -24 5 -7 -9 18 -15 18 -15 -2 -22
-12 -3 -21 -10 -21 -15 0 -5 8 -7 18 -4 14 5 14 4 3 -4 -8 -6 -16 -19 -17 -29
-2 -9 -8 -19 -15 -22 -8 -2 -7 -6 2 -13 10 -7 8 -8 -7 -3 -18 5 -21 1 -20 -23
1 -16 6 -35 13 -43 9 -11 5 -14 -20 -15 -18 -1 -24 1 -14 3 19 5 19 30 -1 51
-7 8 -10 18 -7 23 4 5 2 9 -3 9 -18 0 -21 -14 -6 -41 8 -17 10 -29 4 -29 -5 0
-10 7 -10 16 0 9 -5 12 -12 8 -8 -5 -9 -2 -5 10 5 12 -1 20 -18 28 -44 20 -45
76 -2 62 22 -7 22 -7 3 15 -17 19 -21 20 -28 6 -5 -8 -13 -15 -18 -15 -6 0 -2
9 7 19 9 11 20 18 25 15 4 -3 8 2 8 11 0 9 -4 13 -10 10 -6 -4 -7 1 -3 12 6
16 5 16 -10 5 -9 -8 -16 -17 -15 -20 2 -21 -4 -32 -19 -32 -15 0 -15 2 -4 9 8
5 16 16 17 25 1 8 11 25 23 37 12 13 21 30 22 38 0 11 2 12 6 3 3 -7 0 -19 -6
-26 -12 -15 -4 -49 10 -41 4 3 6 12 2 20 -3 9 1 15 11 15 9 0 16 5 16 11 0 5
-4 8 -8 5 -17 -10 -9 29 10 50 10 11 16 28 13 36 -4 9 -1 19 5 23 8 5 5 12 -7
22 -17 13 -17 14 -1 9 19 -6 25 9 8 17 -6 3 -5 4 2 3 15 -3 22 -56 7 -56 -14
0 -11 -17 4 -17 6 0 20 -4 30 -8 13 -6 16 -3 11 9 -3 9 -9 14 -13 12 -3 -2 -7
7 -8 21 0 16 2 21 7 13 5 -8 10 -9 14 -2 3 6 -3 17 -14 25 -19 13 -19 15 -4
21 10 4 22 2 28 -4 22 -22 28 -8 6 15 -13 14 -20 28 -17 32 4 3 7 1 7 -5 0 -6
9 -10 20 -9 22 1 22 22 -1 22 -7 0 -15 8 -17 18 -2 9 1 17 7 17 6 0 8 -7 5
-15 -4 -10 -2 -13 7 -10 8 3 21 -8 32 -26 10 -18 20 -29 23 -26 9 8 -24 64
-48 82 -13 10 -16 15 -8 12 8 -2 23 3 33 11 15 13 22 14 37 4 11 -6 22 -8 25
-3 3 5 -1 11 -7 14 -7 2 -9 8 -5 13 10 10 28 -16 20 -30 -4 -5 1 -7 11 -3 11
4 15 3 11 -4 -4 -6 -14 -8 -22 -5 -10 4 -13 2 -10 -8 7 -17 -18 -40 -33 -31
-13 8 -13 -5 0 -25 6 -10 10 -11 10 -2 0 6 6 12 14 12 8 0 17 9 21 19 7 23 32
34 41 19 4 -7 9 -6 15 3 4 7 11 10 16 6 4 -5 1 -12 -7 -17 -8 -6 -10 -10 -4
-10 6 0 17 7 24 15 7 8 16 12 21 10 4 -3 7 4 6 15 -1 23 -12 26 -20 7 -7 -19
-41 -15 -63 8 -18 18 -18 19 -1 12 13 -5 17 -3 14 5 -2 7 -13 12 -23 10 -17
-3 -17 -2 3 12 12 10 29 13 40 9 16 -6 16 -5 4 10 -13 16 -16 16 -37 2 -13 -9
-24 -11 -24 -5 0 5 5 10 12 10 6 0 1 11 -13 26 -17 18 -19 23 -6 18 9 -3 17
-3 17 1 0 11 -27 34 -34 28 -17 -17 -3 16 15 36 16 17 18 25 9 36 -6 8 -9 19
-5 25 9 15 45 32 45 22 0 -6 -9 -12 -20 -15 -11 -3 -20 -11 -20 -17 0 -10 3
-10 14 -1 10 9 16 9 21 1 4 -6 4 -14 1 -17 -3 -4 -6 -1 -6 6 0 7 -5 9 -10 6
-6 -4 -8 -11 -4 -16 3 -6 -2 -19 -12 -30 -16 -18 -16 -20 0 -38 10 -11 14 -25
10 -37 -6 -18 -6 -18 11 -2 18 16 18 19 2 36 -23 25 -21 32 7 30 14 -1 22 -6
20 -10 -3 -4 0 -8 7 -8 6 0 9 8 6 19 -3 12 0 18 7 15 6 -2 12 7 13 23 l1 28
-24 -29 c-14 -15 -27 -26 -29 -24 -9 9 66 79 77 72 6 -4 9 -1 6 7 -3 8 -9 14
-14 15 -19 2 -49 18 -60 33 -9 12 -7 19 10 32 11 10 18 20 14 24 -3 4 -16 -3
-29 -16 -18 -18 -20 -25 -10 -40 6 -10 11 -22 11 -26 0 -5 -5 0 -11 10 -8 14
-14 16 -25 6 -10 -8 -14 -8 -14 0 0 6 5 11 10 11 6 0 10 7 10 15 0 7 8 19 18
25 16 10 16 10 0 20 -30 18 -22 40 12 36 17 -2 35 3 41 11 10 12 7 13 -19 8
-21 -3 -32 -1 -32 6 0 7 -9 4 -22 -7 l-22 -19 20 26 c11 17 22 23 26 16 8 -14
36 -18 44 -6 5 8 -9 13 -28 10 -5 0 -8 3 -8 9 0 10 15 14 34 11 5 -1 6 5 3 13
-3 8 1 17 9 20 9 4 12 11 8 18 -5 9 -2 8 9 -1 10 -8 21 -11 24 -7 4 4 1 11 -7
16 -11 7 -5 8 18 5 29 -3 32 -1 28 20 -7 38 55 82 68 49 5 -13 -31 -41 -47
-36 -5 1 -5 -3 -1 -9 5 -8 3 -9 -6 -4 -9 5 -11 4 -6 -4 4 -6 11 -9 16 -6 5 3
11 1 15 -5 3 -5 1 -11 -4 -11 -12 -2 -26 -5 -38 -9 -5 -1 -12 -2 -16 -1 -5 1
0 -9 10 -23 10 -13 22 -22 26 -19 5 3 1 10 -9 17 -15 11 -15 13 0 13 9 0 16
-3 16 -7 0 -3 10 -6 23 -7 21 -2 21 -1 -3 13 -23 14 -23 14 -2 9 24 -7 29 4
10 23 -9 9 -9 12 0 12 7 0 12 -4 12 -10 0 -5 5 -9 11 -7 6 1 14 -5 16 -13 4
-13 3 -13 -6 0 -9 12 -11 10 -7 -12 4 -22 1 -26 -18 -24 -13 2 -23 -3 -23 -10
0 -7 7 -10 16 -7 11 4 10 0 -4 -12 -19 -16 -19 -16 8 -1 15 9 27 12 27 7 0
-10 -19 -26 -32 -26 -3 0 -10 -4 -15 -9 -5 -5 -2 -6 6 -1 10 6 12 4 6 -5 -6
-9 -4 -11 6 -5 8 5 5 -2 -6 -16 l-20 -24 21 18 c11 9 24 14 29 10 4 -5 5 -2 0
6 -6 10 -4 12 5 6 9 -6 11 -4 5 5 -6 9 -4 11 5 5 9 -6 11 -4 5 5 -6 9 -4 11 6
5 11 -7 11 -5 -1 10 -13 17 -13 18 0 11 8 -4 7 -1 -3 7 -10 9 -14 18 -8 21 5
3 11 3 14 -1 2 -5 2 -2 0 5 -1 8 2 10 10 6 9 -5 9 -4 0 7 -16 16 -17 29 -3 29
6 0 10 -7 10 -15 0 -17 16 -20 26 -4 3 6 1 16 -5 22 -9 9 -10 7 -5 -8 9 -24 1
-18 -14 11 -10 19 -9 21 13 18 14 -1 25 2 25 7 0 9 -21 13 -47 10 -6 -1 -10 5
-9 13 3 18 16 34 16 19 0 -6 14 -16 30 -23 26 -11 28 -15 18 -28 -11 -13 -11
-14 1 -7 10 6 12 4 6 -5 -6 -9 -4 -11 5 -5 8 5 11 4 7 -1 -3 -6 5 -10 18 -10
13 0 21 4 18 10 -4 5 -1 6 8 1 11 -7 11 -5 -1 11 -14 18 -14 18 5 4 19 -14 19
-14 5 4 -13 18 -13 19 0 11 12 -7 13 -6 3 7 -7 8 -9 19 -5 23 4 5 1 5 -7 0 -9
-5 -12 -4 -8 2 4 6 -1 10 -11 9 -9 0 -17 6 -17 14 0 8 5 15 10 15 17 0 36 16
30 26 -3 5 0 6 8 3 23 -9 31 16 11 34 -17 16 -17 16 -5 -1 17 -21 6 -36 -12
-17 -10 10 -9 11 3 5 13 -8 13 -7 1 8 -11 14 -16 15 -29 5 -13 -11 -14 -11 -8
0 4 8 3 11 -5 10 -26 -6 -18 20 10 32 17 7 29 16 26 19 -2 4 2 8 10 8 11 0 12
-4 3 -14 -6 -7 -8 -16 -5 -19 3 -3 12 3 19 15 16 25 30 28 21 4 -6 -16 -5 -16
10 -4 13 11 15 17 6 28 -10 11 -9 12 5 7 18 -7 21 -20 6 -29 -5 -3 -10 -12
-10 -18 1 -7 10 -1 20 12 11 13 20 18 20 11 0 -6 -10 -20 -22 -31 -13 -10 -18
-18 -11 -19 6 0 14 4 18 10 3 5 12 7 20 3 11 -3 13 -1 9 10 -3 8 -1 18 5 22 7
4 8 -1 4 -12 -3 -10 -3 -15 2 -11 4 4 16 3 26 -3 11 -5 19 -6 19 -2 0 12 -43
48 -53 45 -4 -1 -10 5 -13 13 -3 8 -11 12 -17 8 -5 -3 -7 -2 -4 4 10 16 36 11
29 -6z m71 2 c-3 -7 -6 -13 -8 -13 -2 0 -5 6 -8 13 -3 8 1 14 8 14 7 0 11 -6
8 -14z m294 2 c0 -8 -4 -12 -9 -9 -5 3 -6 10 -3 15 9 13 12 11 12 -6z m60 0
c0 -8 -4 -12 -9 -9 -5 3 -6 10 -3 15 9 13 12 11 12 -6z m-760 -1 c-3 -3 -12
-4 -19 -1 -8 3 -5 6 6 6 11 1 17 -2 13 -5z m43 -14 c0 -5 -8 -7 -17 -4 -17 5
-17 5 0 -9 23 -19 22 -25 -8 -22 -14 2 -27 -1 -31 -6 -5 -9 8 -13 39 -10 9 1
17 -2 17 -8 0 -6 -7 -8 -15 -5 -10 4 -14 1 -12 -7 2 -8 2 -11 0 -6 -3 4 -9 5
-14 2 -5 -3 -17 -1 -28 5 -13 7 -22 7 -26 0 -4 -6 -11 -8 -16 -4 -6 4 -6 11 2
20 8 10 8 14 0 14 -6 0 -16 -10 -22 -23 -6 -13 -17 -24 -25 -24 -9 0 1 15 22
35 26 24 39 31 47 23 6 -6 16 -11 21 -11 6 0 5 5 -2 12 -15 15 -16 28 -2 28 6
0 9 -3 9 -7 -4 -23 3 -25 17 -5 15 22 44 30 44 12z m398 -15 c-3 -3 -9 2 -12
12 -6 14 -5 15 5 6 7 -7 10 -15 7 -18z m79 5 c1 -11 -2 -22 -8 -25 -5 -4 -9
-11 -9 -17 0 -6 9 -3 20 7 22 20 28 12 7 -9 -12 -13 -19 -14 -67 -17 -39 -2
-50 0 -50 12 0 5 5 7 10 4 6 -3 13 1 16 9 3 9 11 16 16 16 6 0 5 -6 -2 -15 -7
-8 -8 -15 -3 -15 16 0 32 22 26 36 -3 8 0 14 6 14 6 0 10 -4 9 -9 -2 -5 2 -8
7 -7 6 0 9 9 8 19 -2 9 1 17 5 17 4 0 8 -9 9 -20z m378 10 c3 -5 1 -10 -4 -10
-6 0 -11 5 -11 10 0 6 2 10 4 10 3 0 8 -4 11 -10z m61 -2 c3 -4 -1 -5 -10 -4
-8 1 -18 5 -22 8 -3 4 1 5 10 4 8 -1 18 -5 22 -8z m-540 -17 c-4 -5 -1 -12 4
-14 6 -3 5 -4 -2 -3 -15 3 -23 26 -8 26 6 0 9 -4 6 -9z m141 -13 c-3 -8 -6 -5
-6 6 -1 11 2 17 5 13 3 -3 4 -12 1 -19z m200 16 c-3 -3 -11 -6 -19 -8 -7 -1
-20 -6 -28 -11 -12 -7 -13 -6 -3 6 6 8 22 15 34 16 11 1 19 0 16 -3z m-692
-24 c3 -5 1 -10 -4 -10 -6 0 -11 5 -11 10 0 6 2 10 4 10 3 0 8 -4 11 -10z
m582 4 c-3 -3 -12 -4 -19 -1 -8 3 -5 6 6 6 11 1 17 -2 13 -5z m36 -11 c-3 -7
-6 -13 -8 -13 -2 0 -5 6 -8 13 -3 8 1 14 8 14 7 0 11 -6 8 -14z m136 14 c-2
-1 -13 -9 -24 -17 -19 -14 -19 -14 -6 3 7 9 18 17 24 17 6 0 8 -1 6 -3z m281
-7 c0 -5 -5 -10 -11 -10 -5 0 -7 5 -4 10 3 6 8 10 11 10 2 0 4 -4 4 -10z
m-492 -30 c-7 -11 -16 -20 -20 -20 -5 0 -3 9 4 20 7 11 16 20 20 20 5 0 3 -9
-4 -20z m46 5 c-4 -8 -8 -15 -10 -15 -2 0 -4 7 -4 15 0 8 4 15 10 15 5 0 7 -7
4 -15z m263 1 c4 -4 -6 -5 -22 -2 -16 3 -34 1 -40 -4 -8 -7 -12 -5 -12 4 0 14
61 16 74 2z m-169 -9 c14 4 14 3 2 -5 -16 -12 -30 -7 -29 11 0 9 2 9 5 0 3 -7
13 -9 22 -6z m-614 -8 c5 8 13 7 28 -4 14 -9 26 -11 33 -5 9 7 11 2 10 -18 -1
-15 -7 -26 -12 -25 -6 1 -17 -5 -24 -14 -11 -13 -9 -19 15 -38 18 -14 24 -25
17 -29 -6 -4 -9 -11 -6 -16 3 -5 1 -11 -4 -14 -5 -4 -13 -1 -18 6 -8 13 -9 18
-12 39 0 5 -5 8 -10 5 -5 -3 -20 3 -34 14 -20 16 -27 17 -34 8 -10 -17 -11
-30 -2 -49 12 -24 0 -30 -27 -13 -13 9 -29 13 -36 9 -7 -4 0 4 16 17 16 14 26
29 23 35 -4 6 4 14 18 17 15 4 23 11 19 17 -4 6 -9 7 -13 3 -3 -5 -15 -10 -26
-12 -15 -2 -13 2 8 13 16 9 25 21 21 27 -4 6 -3 8 4 4 6 -3 14 3 17 15 5 15 9
18 15 9 5 -9 9 -9 14 -1z m590 -29 c-6 -5 -24 21 -24 34 0 6 6 1 14 -10 8 -10
12 -21 10 -24z m313 25 c0 -8 -4 -12 -9 -9 -5 3 -6 10 -3 15 9 13 12 11 12 -6z
m-1183 -10 c-4 -8 -8 -15 -10 -15 -2 0 -4 7 -4 15 0 8 4 15 10 15 5 0 7 -7 4
-15z m1082 0 c-1 -8 -5 -17 -8 -21 -5 -4 -4 16 1 34 3 9 9 -1 7 -13z m-253 -2
c-7 -2 -19 -2 -25 0 -7 3 -2 5 12 5 14 0 19 -2 13 -5z m84 -15 c-3 -8 -6 -5
-6 6 -1 11 2 17 5 13 3 -3 4 -12 1 -19z m87 6 c3 -8 2 -12 -4 -9 -6 3 -10 10
-10 16 0 14 7 11 14 -7z m-1053 -27 c-10 -9 -11 -8 -5 6 3 10 9 15 12 12 3 -3
0 -11 -7 -18z m899 18 c0 -2 -10 -10 -22 -16 -21 -11 -22 -11 -9 4 13 16 31
23 31 12z m60 -27 c0 -19 -16 -5 -17 14 -2 18 0 20 7 8 5 -8 10 -18 10 -22z
m197 7 c0 -8 -3 -13 -5 -10 -3 3 -10 0 -17 -5 -8 -7 -12 -5 -12 5 0 8 4 12 8
9 4 -2 10 0 14 6 9 14 12 13 12 -5z m101 -10 c-3 -3 -9 2 -12 12 -6 14 -5 15
5 6 7 -7 10 -15 7 -18z m-328 11 c0 -2 -7 -6 -15 -10 -8 -3 -15 -1 -15 4 0 6
7 10 15 10 8 0 15 -2 15 -4z m90 -6 c0 -5 -4 -10 -10 -10 -5 0 -10 5 -10 10 0
6 5 10 10 10 6 0 10 -4 10 -10z m57 -14 c18 -21 18 -21 -3 -3 -11 9 -23 14
-26 11 -3 -3 -8 -1 -12 4 -11 18 25 8 41 -12z m-181 -19 c1 -9 -2 -15 -7 -11
-5 3 -7 10 -4 15 4 5 -2 9 -12 9 -11 0 -19 -8 -20 -19 -1 -14 3 -18 15 -14 14
4 14 3 2 -5 -25 -19 -32 -3 -21 46 3 12 45 -6 47 -21z m33 -3 c-6 -8 -15 -12
-18 -8 -3 4 0 9 7 11 6 3 9 10 6 15 -4 7 -2 8 5 4 9 -6 9 -11 0 -22z m-175 1
c3 -8 1 -15 -4 -15 -6 0 -10 7 -10 15 0 8 2 15 4 15 2 0 6 -7 10 -15z m307 -2
c13 -16 12 -17 -3 -4 -10 7 -18 15 -18 17 0 8 8 3 21 -13z m-241 -39 c0 -8 -4
-14 -10 -14 -5 0 -6 7 -3 17 5 12 3 14 -7 8 -9 -5 -11 -4 -6 4 9 14 26 5 26
-15z m143 19 c3 -5 -6 -9 -20 -10 -19 -1 -22 1 -12 8 17 11 26 11 32 2z m77
-1 c0 -5 -7 -9 -15 -9 -8 0 -12 4 -9 9 3 4 9 8 15 8 5 0 9 -4 9 -8z m-148 -34
c-8 -8 -9 -4 -5 13 4 13 8 18 11 10 2 -7 -1 -18 -6 -23z m-22 2 c-6 -11 -13
-20 -16 -20 -2 0 0 9 6 20 6 11 13 20 16 20 2 0 0 -9 -6 -20z m-76 -6 c3 -8 2
-12 -4 -9 -6 3 -10 10 -10 16 0 14 7 11 14 -7z m41 -15 c11 -16 1 -19 -13 -3
-7 8 -8 14 -3 14 5 0 13 -5 16 -11z m158 -4 c-3 -9 -8 -14 -10 -11 -3 3 -2 9
2 15 9 16 15 13 8 -4z m-265 -15 c7 -12 8 -20 2 -20 -5 0 -10 5 -10 11 0 8 -5
8 -15 -1 -10 -9 -15 -9 -15 -1 0 6 5 11 11 11 5 0 7 5 4 10 -3 6 -2 10 2 10 5
0 14 -9 21 -20z m62 10 c8 -5 11 -10 5 -10 -5 0 -17 5 -25 10 -8 5 -10 10 -5
10 6 0 17 -5 25 -10z m124 -6 c3 -8 2 -12 -4 -9 -6 3 -10 10 -10 16 0 14 7 11
14 -7z m-134 -20 c0 -2 -9 0 -20 6 -11 6 -20 13 -20 16 0 2 9 0 20 -6 11 -6
20 -13 20 -16z m-102 -20 c0 -18 -3 -22 -9 -13 -5 8 -9 12 -10 9 0 -3 -2 -15
-5 -28 -3 -16 0 -21 8 -16 7 4 8 3 4 -5 -11 -17 -25 -4 -23 21 1 17 19 48 33
57 1 1 2 -11 2 -25z m39 0 c-3 -3 -12 -4 -19 -1 -8 3 -5 6 6 6 11 1 17 -2 13
-5z m83 -14 c0 -5 -2 -10 -4 -10 -3 0 -8 5 -11 10 -3 6 -1 10 4 10 6 0 11 -4
11 -10z m96 -2 c3 -4 -1 -5 -10 -4 -8 1 -18 5 -22 8 -3 4 1 5 10 4 8 -1 18 -5
22 -8z m-120 -23 c1 -8 -1 -17 -5 -19 -4 -3 -7 6 -7 19 0 25 8 25 12 0z m-506
11 c0 -2 -8 -10 -17 -17 -16 -13 -17 -12 -4 4 13 16 21 21 21 13z m360 -6 c0
-5 -2 -10 -4 -10 -3 0 -8 5 -11 10 -3 6 -1 10 4 10 6 0 11 -4 11 -10z m226 -2
c3 -4 -1 -5 -10 -4 -8 1 -18 5 -22 8 -3 4 1 5 10 4 8 -1 18 -5 22 -8z m-155
-21 c-10 -9 -11 -8 -5 6 3 10 9 15 12 12 3 -3 0 -11 -7 -18z m-53 -32 c-3 -3
-9 2 -12 12 -6 14 -5 15 5 6 7 -7 10 -15 7 -18z m29 10 c0 -8 -4 -12 -9 -9 -5
3 -6 10 -3 15 9 13 12 11 12 -6z m-117 -30 c0 -5 -5 -3 -10 5 -5 8 -10 20 -10
25 0 6 5 3 10 -5 5 -8 10 -19 10 -25z m159 -9 c-3 -3 -11 5 -18 17 -13 21 -12
21 5 5 10 -10 16 -20 13 -22z m-701 6 c2 -7 -1 -12 -8 -12 -6 0 -8 5 -5 10 3
6 1 10 -4 10 -6 0 -11 -5 -11 -12 0 -6 -3 -9 -6 -5 -9 9 6 29 19 24 6 -2 13
-9 15 -15z m-42 -24 c5 -7 3 -8 -6 -3 -10 6 -12 4 -6 -10 5 -15 4 -16 -9 -5
-13 11 -13 15 -3 21 17 11 16 11 24 -3z m584 4 c0 -5 -7 -9 -15 -9 -8 0 -15 4
-15 9 0 4 7 8 15 8 8 0 15 -4 15 -8z m20 -17 c0 -8 -4 -15 -10 -15 -5 0 -7 7
-4 15 4 8 8 15 10 15 2 0 4 -7 4 -15z m-145 -5 c3 -5 1 -10 -4 -10 -6 0 -11 5
-11 10 0 6 2 10 4 10 3 0 8 -4 11 -10z m245 6 c0 -3 -4 -8 -10 -11 -5 -3 -10
-1 -10 4 0 6 5 11 10 11 6 0 10 -2 10 -4z m1470 -2 c0 -8 -19 -13 -24 -6 -3 5
1 9 9 9 8 0 15 -2 15 -3z m-2217 -39 c-3 -9 -8 -14 -10 -11 -3 3 -2 9 2 15 9
16 15 13 8 -4z m43 -22 c-3 -4 -6 -1 -6 6 0 7 -5 9 -10 6 -6 -4 -7 -11 -4 -17
4 -7 2 -8 -4 -4 -9 5 -8 12 0 26 11 17 14 17 21 4 5 -9 6 -18 3 -21z m591 31
c-3 -3 -12 -4 -19 -1 -8 3 -5 6 6 6 11 1 17 -2 13 -5z m-537 -14 c0 -5 -5 -10
-11 -10 -5 0 -7 5 -4 10 3 6 8 10 11 10 2 0 4 -4 4 -10z m595 1 c-9 -8 -36
-10 -30 -2 2 4 11 8 20 8 8 0 13 -3 10 -6z m-539 -12 c3 -6 -1 -18 -10 -27
-10 -11 -16 -12 -16 -4 0 7 5 12 10 12 6 0 10 5 10 11 0 5 -4 7 -10 4 -5 -3
-10 -1 -10 4 0 14 17 14 26 0z m2049 2 c3 -5 2 -12 -3 -15 -5 -3 -9 1 -9 9 0
17 3 19 12 6z m-2255 -7 c0 -8 -19 -13 -24 -6 -3 5 1 9 9 9 8 0 15 -2 15 -3z
m106 -22 c-17 -16 -18 -16 -5 5 7 12 15 20 18 17 3 -2 -3 -12 -13 -22z m605
11 c13 -16 12 -17 -3 -4 -17 13 -22 21 -14 21 2 0 10 -8 17 -17z m1605 -19 c1
-9 0 -13 -4 -10 -3 4 -7 14 -8 22 -1 9 0 13 4 10 3 -4 7 -14 8 -22z m-2248 3
c6 -5 12 -14 12 -20 0 -7 -5 -4 -10 5 -6 9 -19 15 -30 13 -11 -2 -22 0 -24 4
-7 10 35 8 52 -2z m567 3 c-3 -5 0 -10 7 -11 10 0 10 -2 0 -6 -6 -2 -9 -10 -6
-15 4 -7 2 -8 -5 -4 -6 4 -9 12 -6 17 4 5 0 9 -7 9 -9 0 -9 3 2 10 19 12 23
12 15 0z m-522 -34 c7 3 4 -1 -5 -9 -10 -8 -14 -18 -10 -22 4 -5 2 -5 -5 -2
-6 4 -9 17 -5 29 3 12 7 17 10 10 2 -7 9 -10 15 -6z m494 -8 c-3 -8 -6 -5 -6
6 -1 11 2 17 5 13 3 -3 4 -12 1 -19z m-587 -18 c0 -5 -5 -10 -11 -10 -5 0 -7
5 -4 10 3 6 8 10 11 10 2 0 4 -4 4 -10z m57 -32 c-3 -8 -6 -5 -6 6 -1 11 2 17
5 13 3 -3 4 -12 1 -19z m558 2 c3 -5 1 -10 -4 -10 -6 0 -11 5 -11 10 0 6 2 10
4 10 3 0 8 -4 11 -10z m-17 -26 c6 -11 11 -13 16 -5 9 14 26 14 26 0 0 -5 -4
-8 -9 -4 -5 3 -12 1 -16 -4 -3 -6 -12 -8 -20 -5 -8 4 -12 10 -9 15 3 5 -2 9
-10 9 -9 0 -16 -5 -16 -12 0 -6 -3 -8 -7 -5 -3 4 -11 0 -17 -8 -8 -11 -15 -12
-26 -4 -12 9 -12 10 -1 7 8 -3 23 4 33 14 22 22 44 23 56 2z m-648 0 c0 -8
-19 -13 -24 -6 -3 5 1 9 9 9 8 0 15 -2 15 -3z m94 -6 c-3 -4 -9 -8 -15 -8 -5
0 -9 4 -9 8 0 5 7 9 15 9 8 0 12 -4 9 -9z m36 2 c0 -5 -4 -10 -10 -10 -5 0
-10 5 -10 10 0 6 5 10 10 10 6 0 10 -4 10 -10z m-90 -13 c0 -2 -10 -12 -22
-23 l-23 -19 19 23 c18 21 26 27 26 19z m70 -18 c0 -8 5 -8 15 1 8 7 16 11 16
9 6 -19 7 -62 1 -54 -6 10 -15 11 -39 6 -5 -1 -1 -6 7 -11 8 -5 10 -10 4 -10
-18 0 -24 13 -13 27 9 10 8 17 -1 28 -9 10 -9 15 -1 15 6 0 11 -5 11 -11z
m520 2 c0 -6 -5 -13 -12 -17 -7 -5 -8 -3 -3 6 5 8 3 11 -6 8 -8 -3 -13 -14
-12 -24 2 -11 0 -14 -4 -5 -4 10 -7 10 -13 1 -5 -8 -9 -7 -13 5 -4 9 -3 14 2
11 5 -3 14 1 21 9 14 17 40 20 40 6z m-83 -13 c0 -7 4 -22 7 -33 5 -13 2 -12
-8 5 -17 29 -20 40 -8 40 5 0 9 -6 9 -12z m-477 -20 c0 -4 -4 -8 -9 -8 -6 0
-12 4 -15 8 -3 5 1 9 9 9 8 0 15 -4 15 -9z m462 -16 c3 -11 -1 -18 -11 -18 -9
-1 -25 -4 -36 -8 -11 -4 -8 0 7 8 19 11 25 21 21 33 -4 10 -2 14 4 10 6 -4 13
-15 15 -25z m-522 14 c0 -2 -8 -10 -17 -17 -16 -13 -17 -12 -4 4 13 16 21 21
21 13z m75 -37 c-4 -5 -12 -9 -18 -8 -9 0 -8 2 1 6 6 2 9 10 6 15 -4 7 -2 8 5
4 6 -4 9 -12 6 -17z m-55 7 c0 -2 -7 -7 -16 -10 -8 -3 -12 -2 -9 4 6 10 25 14
25 6z m2658 -31 c-3 -3 -9 2 -12 12 -6 14 -5 15 5 6 7 -7 10 -15 7 -18z
m-2648 5 c-8 -5 -19 -10 -25 -10 -5 0 -3 5 5 10 8 5 20 10 25 10 6 0 3 -5 -5
-10z m2435 0 c3 -6 -1 -7 -9 -4 -18 7 -21 14 -7 14 6 0 13 -4 16 -10z m-2020
-20 c-10 -11 -22 -20 -28 -20 -5 0 1 9 14 20 31 25 37 25 14 0z m-500 0 c-3
-5 -12 -10 -18 -10 -7 0 -6 4 3 10 19 12 23 12 15 0z m2453 -25 c-3 -3 -9 2
-12 12 -6 14 -5 15 5 6 7 -7 10 -15 7 -18z m-2402 -24 c2 -7 0 -7 -3 -1 -3 8
-9 7 -19 -1 -12 -9 -18 -9 -27 0 -9 10 -8 11 7 5 13 -5 17 -4 13 3 -4 7 0 10
10 9 9 -2 18 -8 19 -15z m2504 15 c0 -3 -4 -8 -10 -11 -5 -3 -10 -1 -10 4 0 6
5 11 10 11 6 0 10 -2 10 -4z m230 -2 c0 -8 -19 -13 -24 -6 -3 5 1 9 9 9 8 0
15 -2 15 -3z m-2817 -19 c-3 -9 -8 -14 -10 -11 -3 3 -2 9 2 15 9 16 15 13 8
-4z m22 -26 c-4 -5 -12 -9 -18 -8 -9 0 -8 2 1 6 6 2 9 10 6 15 -4 7 -2 8 5 4
6 -4 9 -12 6 -17z m65 6 c0 -2 -10 -10 -22 -16 -21 -11 -22 -11 -9 4 13 16 31
23 31 12z m2735 -4 c-9 -8 -36 -10 -30 -2 2 4 11 8 20 8 8 0 13 -3 10 -6z m20
-32 c-4 -5 -3 -15 1 -21 15 -23 11 -46 -5 -40 -14 5 -14 3 -2 -11 7 -9 18 -14
24 -10 5 3 7 1 3 -5 -3 -6 -2 -13 2 -16 5 -3 8 -15 7 -28 -1 -13 3 -26 9 -30
7 -5 6 -8 -3 -8 -11 0 -11 -3 -1 -15 6 -8 9 -23 5 -36 -5 -16 -4 -19 5 -14 9
5 11 4 6 -4 -4 -6 -2 -18 4 -26 10 -12 10 -15 -1 -15 -11 0 -11 -2 1 -10 10
-6 11 -10 3 -10 -7 0 -13 -5 -13 -11 0 -5 4 -8 9 -5 5 4 8 -2 6 -11 -1 -10 -8
-17 -15 -15 -6 1 -10 -3 -7 -10 2 -7 9 -12 14 -11 5 1 9 -14 9 -32 0 -18 -4
-31 -8 -29 -5 3 -6 10 -3 15 4 5 1 9 -5 9 -7 0 -10 6 -7 13 3 8 -1 14 -8 14
-7 0 -12 -5 -11 -11 2 -6 1 -7 -2 -2 -2 4 -9 2 -14 -5 -6 -10 -7 -7 -3 10 4
14 3 21 -2 18 -5 -4 -10 1 -10 9 0 10 4 11 11 4 13 -13 26 -13 26 -1 0 5 -10
13 -21 16 -15 5 -18 9 -9 15 9 5 9 9 1 14 -6 4 -9 12 -5 17 3 5 10 7 15 4 5
-3 6 1 3 10 -4 10 -10 12 -18 7 -16 -14 -43 -11 -43 5 0 10 4 10 14 1 11 -9
18 -7 31 6 16 17 16 18 -8 11 l-25 -8 25 21 c14 12 20 21 15 22 -6 0 -16 -5
-21 -10 -7 -7 -11 -6 -11 4 0 8 4 13 9 10 4 -3 8 0 8 5 0 6 3 10 8 10 20 -3
33 2 27 11 -4 6 -10 8 -15 5 -4 -3 -16 -2 -26 2 -15 6 -15 7 4 14 14 5 20 14
16 24 -3 8 -10 13 -14 10 -5 -3 -12 0 -16 6 -4 7 -3 9 3 6 6 -4 17 1 24 10 12
14 11 15 -11 10 -14 -4 -19 -4 -12 -1 6 3 12 10 12 15 0 6 -6 7 -12 3 -7 -4
-3 4 10 18 15 17 20 28 13 33 -6 3 -11 1 -11 -4 0 -6 -5 -11 -11 -11 -8 0 -8
4 0 14 6 8 11 18 10 22 -3 18 1 25 11 19 6 -4 8 -11 5 -16z m-2959 -25 c1 -9
0 -13 -4 -10 -3 4 -7 14 -8 22 -1 9 0 13 4 10 3 -4 7 -14 8 -22z m64 2 c-5
-13 -6 -27 -3 -30 4 -3 1 -6 -5 -6 -14 0 -11 42 3 52 15 11 15 10 5 -16z m77
18 c-3 -3 -12 -4 -19 -1 -8 3 -5 6 6 6 11 1 17 -2 13 -5z m2608 -4 c3 -6 -1
-7 -9 -4 -18 7 -21 14 -7 14 6 0 13 -4 16 -10z m175 0 c0 -5 -5 -10 -11 -10
-5 0 -7 5 -4 10 3 6 8 10 11 10 2 0 4 -4 4 -10z m-2800 -24 c0 -20 -17 -29
-26 -15 -5 8 -3 9 6 4 10 -6 12 -4 7 8 -3 10 -2 17 3 17 6 0 10 -6 10 -14z m6
-34 c-17 -16 -18 -16 -5 5 7 12 15 20 18 17 3 -2 -3 -12 -13 -22z m-30 -10 c1
-7 0 -8 -3 -2 -2 5 -9 10 -14 10 -6 0 -8 -4 -5 -9 3 -5 -5 -16 -18 -25 -20
-13 -25 -13 -30 -1 -3 10 0 12 11 8 11 -4 14 -2 9 5 -5 8 -2 10 9 6 9 -4 15
-3 14 2 -3 18 1 26 13 22 6 -2 13 -10 14 -16z m2804 12 c0 -8 -19 -13 -24 -6
-3 5 1 9 9 9 8 0 15 -2 15 -3z m-2760 -24 c0 -5 -7 -10 -16 -10 -8 0 -13 -4
-10 -8 3 -5 -3 -15 -13 -24 -10 -9 -21 -22 -23 -29 -3 -8 -8 -11 -12 -8 -3 3
5 18 18 32 14 15 22 27 18 27 -6 1 28 30 35 30 2 0 3 -4 3 -10z m-55 -20 c-3
-5 -12 -10 -18 -10 -7 0 -6 4 3 10 19 12 23 12 15 0z m2691 -26 c1 -9 0 -13
-4 -10 -3 4 -7 14 -8 22 -1 9 0 13 4 10 3 -4 7 -14 8 -22z m-2783 -9 c-3 -9
-8 -14 -10 -11 -3 3 -2 9 2 15 9 16 15 13 8 -4z m58 -12 c-12 -20 -14 -14 -5
12 4 9 9 14 11 11 3 -2 0 -13 -6 -23z m2686 -18 c0 -8 -4 -12 -9 -9 -5 3 -6
10 -3 15 9 13 12 11 12 -6z m-2678 -15 c-6 -5 -18 -6 -26 -3 -19 8 -16 11 13
11 17 0 22 -3 13 -8z m2711 6 c0 -2 -8 -10 -17 -17 -16 -13 -17 -12 -4 4 13
16 21 21 21 13z m-2777 -21 c-3 -9 -8 -14 -10 -11 -3 3 -2 9 2 15 9 16 15 13
8 -4z m43 -7 c4 -7 3 -8 -4 -4 -7 4 -12 2 -12 -3 0 -6 -5 -11 -11 -11 -8 0 -8
5 1 15 15 18 17 18 26 3z m2747 -5 c-5 -12 -3 -14 7 -8 9 6 11 4 5 -4 -5 -9
-11 -9 -17 -3 -6 6 -7 15 -4 21 11 17 16 13 9 -6z m-2789 -39 c3 -8 2 -12 -4
-9 -6 3 -10 10 -10 16 0 14 7 11 14 -7z m2746 5 c0 -4 -9 -7 -19 -6 -11 0 -18
4 -16 7 6 9 35 8 35 -1z m75 1 c3 -5 1 -10 -4 -10 -6 0 -11 5 -11 10 0 6 2 10
4 10 3 0 8 -4 11 -10z m-21 -15 c3 -8 1 -15 -4 -15 -6 0 -10 7 -10 15 0 8 2
15 4 15 2 0 6 -7 10 -15z m-2759 -13 c-3 -3 -11 0 -18 7 -9 10 -8 11 6 5 10
-3 15 -9 12 -12z m2735 14 c0 -2 -8 -10 -17 -17 -16 -13 -17 -12 -4 4 13 16
21 21 21 13z m-2755 -47 c-4 -13 -2 -19 6 -17 18 4 20 -42 3 -49 -8 -3 -11
-10 -7 -16 3 -6 1 -7 -6 -3 -6 4 -9 11 -6 16 3 4 -1 11 -7 14 -7 3 -4 4 7 1
15 -4 21 0 22 15 1 11 -4 19 -10 17 -7 -1 -11 8 -10 21 2 15 -1 21 -9 16 -7
-4 -8 -3 -4 5 11 18 28 2 21 -20z m40 11 c-8 -13 24 -60 41 -60 8 0 14 -5 14
-11 0 -7 -9 -5 -24 5 -19 12 -26 12 -30 3 -3 -6 -3 -2 -1 10 3 12 1 24 -5 28
-13 8 -13 35 1 35 5 0 7 -4 4 -10z m2762 4 c-3 -3 -12 -4 -19 -1 -8 3 -5 6 6
6 11 1 17 -2 13 -5z m-2843 -40 c3 -8 2 -12 -4 -9 -6 3 -10 10 -10 16 0 14 7
11 14 -7z m2828 -1 c-16 -14 -16 -14 3 -8 15 5 17 3 8 -6 -12 -12 -37 -3 -28
11 3 5 -3 10 -12 13 -10 2 -3 4 14 4 30 0 31 -1 15 -14z m-47 -13 c-3 -5 -12
-10 -18 -10 -7 0 -6 4 3 10 19 12 23 12 15 0z m-2539 -25 c-3 -23 -12 -26 -13
-5 -1 11 2 20 7 20 4 0 7 -7 6 -15z m2564 5 c0 -5 -4 -10 -10 -10 -5 0 -10 5
-10 10 0 6 5 10 10 10 6 0 10 -4 10 -10z m-2789 -27 c13 -16 12 -17 -3 -4 -10
7 -18 15 -18 17 0 8 8 3 21 -13z m70 0 c-12 -8 -25 -12 -28 -9 -4 3 -1 6 6 6
7 0 10 4 7 8 -2 4 5 9 16 9 21 2 21 2 -1 -14z m2759 9 c0 -5 -7 -9 -15 -9 -8
0 -15 4 -15 9 0 4 7 8 15 8 8 0 15 -4 15 -8z m-2718 -9 c-6 -2 -10 -9 -7 -14
4 -5 -2 -6 -11 -2 -10 4 -15 2 -11 -3 3 -6 1 -16 -4 -24 -7 -11 -8 -9 -6 8 3
23 23 42 42 41 6 0 4 -3 -3 -6z m2671 -3 c3 6 4 5 3 -2 -2 -7 -9 -12 -15 -10
-6 1 -11 -7 -11 -17 0 -26 -17 -36 -35 -21 -8 6 -20 8 -27 4 -10 -6 -9 -3 1 9
13 16 14 16 26 0 16 -22 24 -15 27 20 2 19 6 23 14 16 8 -7 14 -6 17 1z
m-2652 -17 c-5 -10 -9 -22 -9 -28 -1 -13 -32 -19 -32 -6 0 6 8 8 18 4 9 -3 14
-3 10 2 -7 7 8 45 18 45 2 0 0 -8 -5 -17z m2689 3 c0 -2 -7 -7 -16 -10 -8 -3
-12 -2 -9 4 6 10 25 14 25 6z m207 -50 c2 -14 -4 -10 -17 12 -25 40 -25 47 -2
25 10 -10 18 -27 19 -37z m-2835 20 c14 4 18 2 14 -5 -14 -22 -66 -5 -66 22 0
5 7 1 16 -8 10 -10 24 -13 36 -9z m2645 8 c-3 -3 -12 -4 -19 -1 -8 3 -5 6 6 6
11 1 17 -2 13 -5z m-2823 -12 c3 -5 -1 -9 -9 -9 -8 0 -12 4 -9 9 3 4 7 8 9 8
2 0 6 -4 9 -8z m2786 -2 c0 -5 -7 -7 -15 -4 -8 4 -15 8 -15 10 0 2 7 4 15 4 8
0 15 -4 15 -10z m221 -46 c3 3 5 -3 5 -14 0 -10 -3 -17 -6 -15 -3 2 -11 -5
-18 -16 -13 -21 -3 -26 16 -7 9 9 12 9 12 1 0 -7 -8 -14 -18 -17 -24 -8 -24
-34 -1 -41 14 -5 16 -11 10 -28 -4 -12 -6 -32 -5 -45 1 -18 -1 -20 -12 -11
-14 11 -20 -2 -7 -15 4 -3 7 -15 8 -25 1 -13 -3 -17 -14 -13 -14 5 -14 4 -2
-11 8 -10 11 -20 7 -24 -3 -3 -6 0 -6 7 0 17 -13 4 -16 -15 -1 -8 2 -15 7 -15
5 0 9 -5 9 -11 0 -5 -4 -8 -8 -5 -5 3 -9 -11 -9 -30 0 -20 -4 -39 -9 -42 -5
-4 -9 -14 -9 -22 1 -8 -5 -25 -13 -37 -8 -12 -10 -28 -6 -34 4 -8 3 -9 -5 -5
-8 5 -10 0 -7 -18 3 -15 -3 -34 -14 -49 -11 -13 -16 -28 -12 -32 4 -5 1 -4 -7
0 -11 6 -13 4 -8 -8 3 -8 -1 -21 -8 -27 -8 -7 -12 -16 -9 -21 3 -5 0 -9 -6 -9
-6 0 -9 -4 -5 -9 3 -5 -2 -16 -10 -24 -8 -9 -15 -20 -15 -26 0 -12 -13 -15
-23 -5 -4 4 3 15 15 25 11 11 18 19 14 19 -4 0 2 13 13 29 12 16 21 36 21 45
0 9 9 24 19 33 11 9 18 20 15 25 -3 4 -2 14 3 21 4 6 8 17 8 22 2 24 18 65 25
65 4 0 6 13 5 30 -1 16 1 27 6 24 12 -7 11 3 -1 26 -9 17 -8 18 7 13 16 -6 16
-5 4 10 -7 9 -9 17 -4 17 6 0 9 12 8 28 -1 15 1 32 4 37 3 6 6 19 6 30 0 11 4
26 8 33 5 7 3 12 -5 12 -9 0 -9 3 -2 8 6 4 10 35 9 69 0 34 3 59 7 57 13 -8 9
10 -4 26 -10 11 -9 11 6 0 18 -14 19 -13 13 3 -4 10 -7 21 -7 23 0 3 -3 3 -7
1 -5 -3 -9 7 -10 21 -1 26 -1 26 16 -6 9 -18 19 -31 22 -28z m-194 27 c1 -10
-8 -24 -20 -30 l-22 -11 22 5 c19 5 21 2 19 -22 -2 -34 -14 -55 -27 -48 -5 4
-9 2 -9 -3 0 -17 13 -22 29 -9 14 11 14 10 2 -5 -11 -15 -11 -18 0 -18 9 0 10
-3 3 -8 -6 -4 -10 -17 -9 -29 1 -12 -2 -20 -6 -17 -4 2 -10 0 -13 -5 -3 -5 2
-12 11 -15 15 -6 15 -8 3 -16 -8 -6 -11 -10 -7 -10 5 0 5 -6 0 -12 -4 -7 -8
-22 -8 -33 0 -13 -7 -20 -22 -21 -15 -1 -21 4 -20 17 2 24 6 24 24 2 13 -16
13 -16 3 5 -8 17 -8 22 2 22 7 0 5 5 -6 11 -13 8 -15 14 -7 19 8 5 3 13 -15
24 -14 10 -23 13 -20 7 4 -7 1 -9 -7 -5 -8 3 -18 0 -23 -7 -5 -9 -2 -10 9 -6
9 3 19 2 22 -4 4 -5 11 -6 17 -3 7 4 8 2 4 -5 -4 -6 -16 -9 -26 -6 -11 3 -20
0 -24 -10 -4 -11 -2 -14 6 -9 7 4 8 3 4 -4 -11 -17 -29 -15 -22 3 7 19 -3 47
-15 39 -5 -3 -6 -11 -2 -17 11 -18 11 -47 0 -40 -6 3 -7 1 -3 -5 3 -6 2 -13
-3 -17 -14 -8 -5 -44 16 -68 l18 -21 -27 20 c-14 10 -26 21 -26 24 0 3 -1 8
-2 13 -3 9 -7 24 -9 35 -1 4 -5 1 -10 -7 -7 -10 -4 -19 7 -29 9 -7 11 -10 3
-6 -10 5 -12 3 -6 -6 6 -9 4 -11 -5 -5 -9 6 -11 4 -5 -6 8 -12 6 -12 -8 0 -15
12 -17 11 -17 -3 0 -10 4 -15 9 -11 6 3 8 -6 5 -21 -4 -23 -2 -25 18 -19 22 5
22 5 -2 -9 -14 -9 -19 -15 -12 -16 8 0 10 -5 6 -12 -6 -9 -9 -9 -12 0 -2 7 -8
10 -13 6 -5 -3 1 -14 13 -24 13 -11 18 -19 13 -20 -6 0 -16 5 -22 11 -7 7 -10
4 -9 -13 1 -15 -4 -22 -13 -20 -12 3 -12 1 0 -14 8 -10 9 -15 3 -11 -6 3 -11
0 -11 -8 0 -8 3 -15 7 -15 4 0 7 -7 7 -15 0 -8 -4 -15 -9 -15 -4 0 -8 8 -8 18
-1 16 -1 16 -11 -1 -5 -9 -7 -22 -3 -29 4 -7 3 -8 -4 -4 -6 4 -22 2 -34 -4
-22 -11 -22 -11 1 8 16 13 20 21 12 26 -6 4 -11 12 -11 19 0 6 7 2 15 -9 13
-17 14 -17 15 -1 0 9 5 17 11 17 5 0 7 5 4 10 -4 6 -12 7 -18 3 -14 -8 11 26
33 45 13 11 11 12 -10 7 l-25 -6 25 15 c24 14 24 17 1 20 -5 0 -13 5 -18 10
-4 5 -3 6 3 3 16 -9 39 19 24 28 -8 5 -8 10 0 20 6 8 12 27 12 44 1 27 2 29
14 13 11 -15 13 -14 10 10 -1 15 -11 38 -22 50 l-19 23 21 -18 c11 -9 24 -14
27 -11 4 4 -1 13 -11 21 -16 12 -16 13 2 6 13 -4 17 -3 13 4 -4 6 -2 13 4 15
19 6 20 57 1 68 -9 5 -12 9 -7 9 6 0 19 -6 29 -14 26 -20 32 -19 32 5 0 14 -5
18 -16 15 -9 -3 -21 5 -29 18 -14 22 -14 22 8 3 11 -11 21 -14 21 -8 0 6 -4
14 -10 17 -5 3 -10 12 -10 18 0 7 5 5 10 -5 6 -10 18 -14 30 -11 12 3 20 0 20
-6 0 -7 4 -10 9 -7 5 4 8 17 7 31 -2 13 0 22 5 20 4 -3 10 -1 14 5 3 5 -2 10
-12 10 -15 0 -16 2 -3 10 19 12 32 -8 20 -31 -9 -17 -4 -29 12 -29 5 0 7 4 4
8 -7 12 12 38 21 29 4 -5 1 -12 -7 -17 -9 -6 -10 -10 -3 -10 13 0 26 17 29 38
2 8 -4 11 -14 7 -23 -7 -48 31 -27 39 8 3 22 3 30 -1 9 -3 15 -2 14 3 -3 18 1
34 9 34 4 0 8 -8 9 -19z m-2752 -1 c-3 -5 -12 -10 -18 -10 -7 0 -6 4 3 10 19
12 23 12 15 0z m75 2 c0 -4 -10 -9 -22 -9 -18 -2 -20 0 -8 7 18 12 30 13 30 2z
m65 -2 c-3 -5 -12 -10 -18 -10 -7 0 -6 4 3 10 19 12 23 12 15 0z m2512 -5 c4
-4 2 -5 -4 -1 -14 8 -16 0 -14 -56 1 -21 -3 -38 -8 -38 -5 0 -7 10 -3 22 3 13
1 19 -5 15 -6 -4 -18 4 -27 18 -11 17 -13 26 -4 31 6 4 9 3 5 -2 -3 -5 1 -17
8 -27 9 -12 15 -14 20 -7 4 6 1 18 -7 27 -11 14 -11 16 1 8 11 -6 13 -4 8 7
-6 17 16 19 30 3z m43 5 c-8 -5 -19 -10 -25 -10 -5 0 -3 5 5 10 8 5 20 10 25
10 6 0 3 -5 -5 -10z m-2665 -20 c3 -5 1 -10 -4 -10 -6 0 -11 5 -11 10 0 6 2
10 4 10 3 0 8 -4 11 -10z m81 -8 c1 -7 0 -8 -3 -2 -8 16 -19 12 -20 -9 -1 -16
4 -19 25 -15 19 3 23 2 13 -5 -31 -20 -60 8 -43 42 5 11 25 3 28 -11z m-55
-19 c-12 -20 -14 -14 -5 12 4 9 9 14 11 11 3 -2 0 -13 -6 -23z m2549 -47 c0
-6 -7 -1 -15 10 -8 10 -15 23 -15 28 0 6 7 1 15 -10 8 -10 15 -23 15 -28z
m-2539 1 c-10 -9 -11 -8 -5 6 3 10 9 15 12 12 3 -3 0 -11 -7 -18z m68 -20 c8
-10 7 -14 -2 -14 -8 0 -14 6 -14 14 0 7 1 13 2 13 2 0 8 -6 14 -13z m2818 -2
c0 -8 -4 -12 -9 -9 -5 3 -6 10 -3 15 9 13 12 11 12 -6z m-2860 -12 c0 -9 -4
-10 -14 -2 -7 6 -13 12 -13 14 0 1 6 2 13 2 8 0 14 -6 14 -14z m42 -26 c8 -10
7 -14 -2 -14 -8 0 -14 6 -14 14 0 7 1 13 2 13 2 0 8 -6 14 -13z m-35 -25 c3
-5 -1 -9 -9 -9 -8 0 -12 4 -9 9 3 4 7 8 9 8 2 0 6 -4 9 -8z m2453 -29 c0 -10
-4 -10 -16 -1 -9 7 -18 13 -20 15 -2 1 5 1 16 0 11 0 20 -7 20 -14z m-2417
-13 c0 -5 -5 -10 -11 -10 -5 0 -7 5 -4 10 3 6 8 10 11 10 2 0 4 -4 4 -10z
m2396 -2 c4 -7 3 -8 -4 -4 -7 4 -12 2 -12 -5 0 -7 -3 -10 -6 -6 -6 5 3 27 11
27 2 0 7 -5 11 -12z m161 -33 c5 -4 2 -5 -4 -1 -7 4 -14 2 -14 -3 -3 -26 -4
-30 -11 -37 -11 -10 -10 -26 1 -20 5 3 12 -1 15 -9 4 -13 2 -13 -14 -5 -15 8
-21 6 -30 -11 -10 -19 -10 -20 9 -10 11 6 27 8 36 4 14 -5 16 -2 10 17 -5 16
-4 20 4 16 18 -11 0 -86 -21 -86 -5 0 -7 4 -4 9 4 5 -2 8 -11 6 -10 -1 -17 -8
-15 -15 1 -6 -2 -9 -7 -5 -6 3 -8 12 -5 19 3 7 -2 19 -11 26 -12 10 -13 16 -4
27 9 11 9 17 0 26 -10 9 -11 8 -6 -5 4 -10 3 -18 -2 -18 -20 0 -8 32 19 51 15
11 26 24 24 28 -7 10 32 7 41 -4z m-119 -111 c-2 -10 5 -18 15 -19 9 -2 15 1
11 6 -3 5 -10 6 -16 3 -7 -5 -8 -2 -3 6 6 10 15 4 36 -21 25 -30 34 -32 30 -6
-1 4 7 2 18 -5 10 -6 17 -18 14 -25 -8 -20 -23 -16 -17 5 5 14 4 14 -4 3 -14
-20 -45 -24 -38 -5 4 10 2 12 -6 8 -6 -4 -8 -3 -5 3 6 9 1 11 -42 15 -19 2
-21 13 -8 36 11 17 18 15 15 -4z m29 -63 c8 -12 20 -18 33 -16 11 2 20 0 20
-4 0 -13 -36 -42 -43 -35 -4 4 1 12 9 19 15 11 15 12 0 12 -15 0 -20 -10 -17
-29 0 -5 -3 -8 -7 -8 -15 0 -22 12 -15 24 16 24 12 35 -8 23 -13 -8 -15 -13
-6 -19 9 -6 9 -8 0 -8 -16 0 -26 17 -13 25 6 4 7 11 4 17 -4 7 -2 8 4 4 7 -4
12 -2 12 3 0 17 14 13 27 -8z m59 -65 c0 -14 -4 -22 -8 -20 -7 5 -12 -18 -9
-39 3 -15 -20 -47 -30 -42 -13 9 -11 25 3 23 7 -2 13 8 14 22 1 14 4 34 8 45
5 14 3 13 -7 -4 -12 -20 -15 -21 -20 -6 -9 22 -9 27 2 21 5 -3 14 1 21 9 18
22 26 19 26 -9z m-59 -25 c13 -19 23 -39 23 -45 -1 -6 -7 0 -15 14 l-15 25 3
-24 c1 -14 -4 -26 -13 -28 -13 -4 -13 -3 0 6 8 6 10 11 4 11 -6 0 -10 13 -9
28 1 23 -2 28 -19 27 -21 -2 -36 -25 -16 -25 6 0 8 -5 5 -10 -4 -6 -10 -8 -14
-6 -4 3 -8 -1 -8 -9 0 -8 4 -15 9 -15 4 0 3 -9 -4 -19 -6 -11 -19 -17 -27 -14
-14 4 -14 4 -1 -6 8 -6 12 -11 8 -11 -18 0 -24 -2 -36 -12 -10 -8 -11 -6 -6 8
6 16 4 17 -6 7 -8 -7 -15 -20 -16 -28 -2 -11 2 -12 16 -5 9 5 20 6 24 3 12
-13 5 -18 -24 -19 -27 -2 -29 1 -25 23 5 30 8 34 32 38 10 1 17 7 16 13 -1 5
5 9 15 8 13 -1 17 7 16 37 -1 20 3 37 9 37 5 0 7 6 4 13 -3 9 4 13 21 12 18 0
33 -10 49 -34z m-33 -40 c-3 -14 -6 -32 -6 -38 -1 -7 -5 -13 -9 -13 -4 0 -6
-9 -4 -21 3 -13 0 -19 -8 -16 -7 3 -10 11 -9 18 2 8 0 10 -4 6 -14 -13 -13
-41 0 -57 9 -10 11 -22 6 -35 -5 -11 -10 -15 -11 -10 -1 6 -3 15 -4 20 -2 6
-3 16 -4 23 0 7 -5 11 -10 7 -14 -8 -7 -60 8 -57 8 2 10 -4 6 -17 -3 -11 -1
-22 4 -26 7 -3 8 0 5 9 -3 9 -1 16 5 16 6 0 10 3 10 8 -3 20 2 32 12 26 7 -4
7 1 -1 16 -11 20 -10 22 4 17 11 -5 15 -3 10 5 -5 7 -3 8 6 3 9 -5 11 -4 6 3
-5 8 -13 9 -25 2 -18 -9 -31 -4 -31 11 0 5 6 6 14 3 8 -3 17 0 21 5 3 6 10 9
15 6 5 -3 12 -1 15 5 4 6 1 9 -6 8 -6 -2 -14 3 -16 10 -6 14 18 12 30 -3 5 -6
7 -4 4 5 -2 8 -9 15 -14 15 -6 0 -15 3 -19 8 -4 4 2 7 13 7 31 0 47 -24 28
-40 -9 -7 -14 -19 -11 -26 3 -7 -2 -18 -9 -24 -8 -7 -13 -16 -10 -20 3 -4 -2
-13 -10 -20 -8 -7 -15 -19 -15 -26 0 -8 -5 -14 -11 -14 -5 0 -8 -4 -4 -9 3 -6
-3 -14 -12 -20 -10 -6 -14 -11 -10 -11 12 0 -20 -30 -32 -30 -6 0 -8 -7 -5
-15 4 -8 1 -15 -5 -15 -6 0 -10 -3 -9 -7 2 -5 -10 -20 -25 -35 -15 -15 -27
-22 -27 -15 0 7 -4 6 -10 -3 -6 -9 -5 -17 3 -22 9 -6 9 -8 0 -8 -7 0 -12 -9
-10 -20 4 -28 12 -33 27 -15 7 8 18 15 25 15 6 0 17 11 23 24 14 31 66 68 78
56 6 -6 10 -3 10 9 0 12 -6 17 -16 14 -8 -2 -5 2 8 9 12 8 20 16 17 19 -3 3 5
14 17 25 12 10 18 13 14 7 -4 -8 -2 -13 5 -13 6 0 9 8 6 19 -3 15 -1 18 11 14
10 -4 13 -2 8 5 -3 6 -2 13 4 17 6 4 7 11 4 17 -4 7 -2 8 4 4 7 -4 12 -1 12 9
0 10 5 13 12 9 8 -5 9 -2 5 10 -4 10 -1 19 8 22 8 4 15 12 15 20 0 7 7 17 16
22 9 5 15 12 15 15 -3 20 0 27 10 27 8 0 8 -5 -1 -15 -7 -8 -9 -15 -5 -15 5 0
2 -8 -6 -17 -8 -10 -24 -35 -34 -55 -11 -21 -24 -38 -28 -38 -5 0 -6 -7 -3
-16 3 -8 2 -13 -3 -10 -5 3 -14 -8 -21 -24 -7 -17 -20 -30 -29 -30 -11 0 -12
-3 -4 -8 8 -5 8 -12 -3 -26 -8 -11 -14 -16 -15 -10 0 5 -4 -1 -10 -14 -5 -13
-13 -20 -19 -17 -5 3 -10 -2 -11 -12 0 -10 -3 -13 -6 -5 -8 21 -21 13 -19 -13
2 -13 0 -23 -4 -20 -3 2 -13 -4 -22 -13 -24 -27 -58 -53 -58 -44 -1 4 -7 -4
-16 -18 l-15 -25 7 25 c6 22 5 23 -9 11 -9 -7 -15 -18 -14 -24 1 -7 -4 -11
-10 -9 -7 1 -13 -2 -13 -8 0 -5 -10 -14 -21 -21 -14 -7 -19 -7 -15 0 4 5 -2
19 -14 31 -11 11 -16 20 -12 20 4 0 13 -5 20 -12 16 -16 16 4 0 21 -10 11 -10
13 0 7 6 -4 12 -2 12 4 0 6 5 8 10 5 6 -3 10 -2 10 3 0 5 -10 13 -22 19 -19 8
-20 10 -4 16 9 4 15 3 12 -1 -3 -5 8 -9 23 -9 38 0 36 26 -4 50 -18 11 -22 16
-10 12 17 -4 21 0 23 26 2 21 -1 28 -9 23 -8 -4 -9 -3 -5 4 4 6 14 8 24 5 15
-6 16 -5 2 12 -8 10 -10 16 -3 12 6 -4 14 -3 17 1 8 13 42 8 62 -9 17 -13 17
-13 0 13 -18 27 -15 48 7 48 8 0 8 -3 -2 -9 -9 -6 -10 -11 -2 -15 6 -4 8 -12
5 -18 -4 -6 2 -5 15 2 12 6 19 15 16 21 -4 5 -1 9 5 9 6 0 8 5 4 11 -4 8 -9 7
-15 -2 -5 -8 -9 -12 -10 -9 0 3 -2 13 -4 23 -2 13 1 17 11 13 12 -4 12 -2 4
14 -6 10 -9 23 -8 27 3 9 -5 13 -24 13 -9 0 -8 -3 2 -10 12 -7 12 -12 2 -22
-9 -9 -12 -9 -12 3 0 26 -21 40 -39 26 -14 -11 -14 -10 -2 5 7 10 17 16 21 13
5 -3 11 -1 15 4 3 5 14 8 25 6 25 -5 35 12 19 31 -7 8 -8 14 -3 12 5 -2 20 5
34 15 13 9 20 17 15 17 -5 0 -4 5 2 11 6 6 9 17 7 24 -3 7 0 16 6 20 8 5 7 11
-2 23 -12 15 -11 16 4 3 13 -9 16 -22 12 -40z m-122 -201 c-3 -10 1 -8 14 5
10 12 15 15 10 8 -5 -7 -6 -13 -3 -13 3 0 -5 -11 -19 -25 -28 -28 -44 -34 -23
-8 12 15 12 16 -3 10 -10 -3 -18 -2 -18 3 0 6 7 10 15 10 8 0 15 9 15 20 0 11
-5 20 -11 20 -5 0 -7 5 -4 11 10 15 34 -22 27 -41z m43 -40 c3 -5 1 -10 -4
-10 -6 0 -11 5 -11 10 0 6 2 10 4 10 3 0 8 -4 11 -10z m-125 -150 c8 -5 11
-10 5 -10 -5 0 -17 5 -25 10 -8 5 -10 10 -5 10 6 0 17 -5 25 -10z m-70 -110
c0 -5 -5 -10 -11 -10 -5 0 -7 5 -4 10 3 6 8 10 11 10 2 0 4 -4 4 -10z m12 -36
c-8 -15 -9 -15 -15 0 -4 10 -3 15 3 11 6 -3 10 2 11 12 0 10 3 13 5 6 3 -7 1
-20 -4 -29z m-25 -9 c4 -4 3 -5 -4 -2 -6 4 -13 2 -15 -5 -3 -8 -6 -6 -10 4 -7
17 15 19 29 3z"/>
<path d="M1115 3166 c-15 -11 -16 -13 -1 -13 9 0 16 5 16 11 0 6 5 4 10 -4 6
-9 10 -10 10 -3 0 19 -16 23 -35 9z"/>
<path d="M1165 3169 c-4 -5 1 -19 11 -30 18 -20 18 -21 -16 -49 -19 -16 -38
-26 -42 -24 -5 3 -8 0 -8 -6 0 -7 6 -10 14 -7 14 5 33 -9 35 -25 1 -5 2 -10 2
-13 9 -36 -11 -62 -45 -61 -14 1 -35 11 -48 21 -19 17 -20 17 -9 2 13 -16 12
-21 -12 -43 -15 -14 -24 -32 -22 -43 3 -18 -40 -69 -53 -63 -4 2 -14 -7 -22
-19 -12 -19 -12 -21 -1 -15 10 7 12 5 6 -4 -6 -9 -4 -11 4 -6 7 5 10 15 7 25
-5 13 -4 13 8 -2 13 -17 14 -17 21 0 5 10 7 22 6 26 -1 5 3 6 9 2 8 -5 8 -11
0 -20 -6 -7 -10 -17 -9 -21 1 -5 1 -11 -1 -14 -10 -26 -7 -47 5 -47 10 0 13 7
10 18 -3 9 -1 21 6 24 8 6 8 10 -2 16 -7 4 -10 11 -6 16 9 9 28 -17 21 -29 -3
-4 0 -8 7 -8 8 0 8 -4 -1 -15 -7 -9 -11 -18 -8 -20 3 -3 11 1 17 9 10 11 9 21
-4 45 -8 17 -13 31 -10 31 3 0 1 10 -5 23 -11 22 -11 22 6 2 14 -17 16 -18 10
-2 -4 12 -2 16 6 11 6 -4 8 -3 4 4 -3 6 -1 14 5 18 8 5 9 3 4 -7 -7 -11 -5
-11 11 1 18 14 18 14 5 -5 -14 -19 -14 -19 4 -3 10 9 19 29 21 45 1 15 2 30 3
32 1 2 9 -3 18 -10 14 -12 16 -12 8 0 -6 10 -4 12 5 6 8 -5 11 -4 7 2 -4 6 1
10 11 9 10 0 16 6 16 16 -1 10 3 15 9 11 6 -3 7 -1 3 5 -3 6 3 16 14 22 13 7
20 7 20 0 0 -5 -7 -10 -16 -10 -8 0 -12 -5 -9 -10 5 -8 12 -7 23 2 13 11 14
11 7 -1 -5 -9 -4 -12 2 -8 5 3 9 22 8 42 -2 26 3 40 18 50 11 8 24 12 29 9 4
-3 8 -1 8 5 0 5 -9 9 -20 8 -11 -1 -20 -5 -20 -10 0 -4 -5 -5 -11 -1 -8 4 -7
9 2 15 10 7 5 8 -12 5 -21 -3 -26 -1 -24 12 1 10 -3 20 -9 24 -8 6 -8 8 0 8 6
0 17 -7 24 -15 7 -8 17 -15 22 -15 6 0 5 7 -2 16 -8 8 -9 14 -4 13 16 -5 54
12 54 23 0 6 -6 6 -15 -2 -9 -7 -18 -10 -22 -7 -3 4 -12 2 -19 -4 -9 -7 -18
-7 -31 0 -14 8 -15 10 -3 11 13 0 13 1 0 10 -19 13 -27 12 -35 -1z m19 -15 c3
-8 2 -12 -4 -9 -6 3 -10 10 -10 16 0 14 7 11 14 -7z m14 -54 c-2 -5 2 -10 7
-11 19 -2 35 -21 26 -33 -4 -6 -7 -19 -5 -29 1 -11 0 -16 -3 -13 -4 3 -18 -1
-32 -10 -14 -9 -23 -13 -19 -9 4 5 3 14 -3 22 -6 7 -8 13 -4 13 5 0 0 9 -10
20 -10 11 -15 20 -12 20 17 0 23 4 35 21 14 21 23 25 20 9z m-100 -167 c-5 -7
-8 -20 -4 -28 5 -13 -6 -20 -18 -12 -2 1 -13 -6 -23 -16 -19 -17 -20 -16 -19
7 2 31 32 65 56 63 14 -1 16 -4 8 -14z m-98 -109 c0 -8 -19 -13 -24 -6 -3 5 1
9 9 9 8 0 15 -2 15 -3z"/>
<path d="M1176 3075 c-3 -10 -11 -13 -18 -9 -7 4 -5 -1 4 -12 15 -17 18 -24
18 -39 0 -3 9 -1 20 5 11 6 18 15 15 20 -3 5 -1 11 5 15 6 4 8 11 4 16 -3 5
-10 6 -16 3 -6 -4 -14 -1 -18 6 -5 8 -9 7 -14 -5z m29 -21 c-12 -9 -13 -13 -4
-16 9 -3 7 -7 -5 -11 -9 -4 -15 -3 -11 2 3 5 1 12 -5 16 -15 9 -4 21 20 21 19
0 19 -2 5 -12z"/>
<path d="M1059 2924 c-18 -22 -22 -49 -5 -35 7 6 15 8 19 5 3 -3 4 2 3 13 -2
10 2 21 8 25 8 6 8 8 0 8 -6 0 -18 -7 -25 -16z"/>
<path d="M1265 3132 c-18 -12 -11 -37 10 -37 20 0 29 -29 10 -31 -32 -3 -42
-17 -40 -55 2 -21 -1 -39 -6 -39 -5 0 -9 -5 -9 -12 0 -6 3 -9 6 -5 4 3 15 -4
25 -16 17 -21 18 -22 36 -3 17 18 17 18 -3 12 -14 -4 -26 -1 -35 11 -8 9 -9
14 -4 11 6 -4 11 2 11 12 0 10 -4 16 -8 14 -4 -3 -8 0 -8 6 0 7 7 10 15 7 8
-4 17 -2 20 3 6 9 -8 14 -27 11 -4 0 -5 6 -2 14 5 13 8 13 21 0 19 -19 30 -19
30 0 0 9 -6 14 -13 11 -8 -3 -16 -1 -19 5 -4 5 -3 9 2 8 16 -2 53 13 53 23 0
5 -4 7 -8 4 -4 -2 -9 5 -9 16 -3 30 -28 45 -48 30z m25 -6 c0 -2 -8 -10 -17
-17 -16 -13 -17 -12 -4 4 13 16 21 21 21 13z"/>
<path d="M1327 3123 c-4 -3 -2 -14 3 -24 10 -18 3 -52 -9 -44 -4 2 -8 -2 -8
-10 0 -8 7 -17 14 -19 8 -3 11 -2 8 3 -3 5 -1 12 5 16 6 4 8 11 5 16 -3 5 1 6
9 3 9 -4 18 1 22 10 3 9 10 14 14 11 5 -3 12 0 16 6 4 7 3 9 -3 6 -6 -4 -14 0
-17 9 -4 9 -9 14 -13 11 -3 -4 -13 -2 -23 3 -10 5 -20 7 -23 3z m27 -25 c-5
-7 -2 -9 9 -5 11 4 14 2 10 -9 -3 -7 -9 -14 -13 -14 -10 0 -20 26 -13 34 10
10 15 7 7 -6z"/>
<path d="M1424 3118 c9 -5 23 -5 32 0 12 6 7 9 -16 9 -23 0 -28 -3 -16 -9z"/>
<path d="M1363 3053 c-18 -12 -21 -19 -12 -35 10 -18 9 -19 -12 -8 -17 10 -23
9 -30 -1 -5 -8 -9 -10 -9 -5 0 5 -6 3 -14 -3 -8 -7 -14 -21 -13 -32 1 -21 12
-25 22 -9 3 6 1 10 -5 10 -6 0 -8 5 -5 10 4 6 15 8 25 5 10 -3 21 -1 24 4 4 5
18 8 32 5 24 -4 24 -4 9 19 -19 29 -9 41 19 22 30 -22 37 -18 24 10 -13 29
-24 30 -55 8z"/>
<path d="M925 3030 c-19 -20 -4 -22 29 -4 15 9 16 12 3 17 -8 3 -23 -3 -32
-13z"/>
<path d="M1382 3020 c7 -14 11 -31 10 -37 -2 -7 2 -13 8 -13 5 0 10 4 10 9 0
15 30 21 51 11 25 -14 25 1 -1 22 -11 10 -22 13 -25 7 -9 -13 -37 -7 -53 11
-11 12 -11 11 0 -10z"/>
<path d="M1166 2937 c-22 -21 -32 -25 -42 -16 -10 8 -12 6 -9 -10 2 -11 -5
-31 -16 -45 -29 -36 -27 -38 30 -27 2 1 -1 7 -7 14 -7 9 -3 17 16 31 14 11 22
13 17 6 -5 -9 -4 -11 3 -6 7 4 12 2 12 -5 0 -9 4 -9 15 1 8 6 19 9 24 6 12 -8
3 -36 -11 -36 -5 0 -6 5 -3 10 3 6 2 10 -4 10 -14 0 -21 -14 -13 -25 10 -14
55 -18 47 -4 -4 6 2 19 14 30 12 11 21 25 21 32 0 8 4 7 10 -3 5 -8 12 -11 16
-7 4 4 -3 15 -16 24 -13 9 -32 25 -42 35 -11 11 -18 13 -18 6 0 -8 -3 -9 -8
-3 -4 6 -18 -1 -36 -18z m56 -13 c-3 -15 -1 -16 11 -5 11 8 17 9 22 1 4 -6 1
-9 -6 -8 -6 2 -14 -3 -17 -11 -3 -9 0 -11 8 -6 9 5 11 4 6 -3 -5 -9 -13 -9
-27 -2 -11 6 -24 8 -30 4 -6 -4 -15 -1 -20 7 -6 11 -11 10 -27 -4 -15 -14 -19
-14 -19 -2 0 8 3 12 7 10 3 -2 19 7 35 19 34 27 62 27 57 0z m-108 -72 c3 -5
-1 -9 -9 -9 -8 0 -12 4 -9 9 3 4 7 8 9 8 2 0 6 -4 9 -8z"/>
<path d="M1179 2923 c-6 -7 -10 -13 -8 -14 30 -7 45 -3 45 11 0 20 -22 22 -37
3z"/>
<path d="M829 2923 c-13 -36 8 -72 26 -43 3 6 -2 10 -12 11 -11 0 -13 3 -5 6
6 2 10 9 7 14 -4 5 2 6 11 2 11 -4 15 -3 10 5 -3 6 -3 13 2 16 4 2 8 -6 8 -19
0 -13 -4 -22 -8 -19 -4 3 -5 -2 -2 -11 7 -18 34 -16 52 5 11 13 11 11 2 -7 -8
-18 -8 -23 2 -23 9 0 9 -3 -2 -10 -13 -9 -13 -10 0 -10 9 0 11 -3 5 -8 -16
-11 -17 -34 -3 -43 10 -7 10 -9 -1 -9 -11 0 -11 -3 -1 -15 9 -11 9 -15 1 -15
-7 0 -9 -5 -5 -11 4 -8 12 -3 21 12 8 13 12 16 9 6 -4 -12 -2 -16 7 -12 6 4 4
0 -5 -8 -10 -8 -18 -18 -18 -22 0 -4 7 -2 16 5 12 11 15 11 12 -1 -2 -8 3 -13
10 -11 8 1 11 -2 6 -9 -4 -8 -3 -9 5 -5 6 4 9 12 6 17 -3 5 1 6 9 3 9 -3 16
-1 16 6 0 6 -4 9 -9 6 -5 -3 -14 1 -21 9 -10 12 -10 15 0 15 8 0 10 3 7 7 -4
3 -2 12 4 19 11 14 -6 14 -28 1 -21 -13 -40 37 -22 59 6 7 6 14 1 18 -5 3 -8
19 -7 36 2 23 0 28 -10 20 -9 -8 -17 -4 -28 13 -19 30 -56 30 -68 0z m75 -22
c3 -5 0 -11 -7 -14 -8 -3 -14 1 -14 9 0 16 13 19 21 5z m69 -136 c-3 -9 -8
-14 -10 -11 -3 3 -2 9 2 15 9 16 15 13 8 -4z m2 -34 c3 -5 2 -12 -3 -15 -5 -3
-9 1 -9 9 0 17 3 19 12 6z"/>
<path d="M1135 2870 c-4 -6 -4 -14 0 -19 3 -5 1 -12 -5 -16 -6 -4 -8 -11 -5
-16 4 -5 1 -9 -4 -9 -6 0 -11 4 -11 10 0 5 -7 7 -15 4 -8 -4 -17 1 -21 10 -6
15 -7 15 -19 -1 -18 -25 -7 -49 12 -26 8 10 12 13 9 6 -4 -6 -8 -26 -10 -43
-4 -33 -23 -53 -40 -43 -5 3 -6 2 -3 -4 4 -6 -5 -15 -18 -21 -27 -12 -30 -19
-16 -41 5 -8 11 -9 15 -3 3 6 1 14 -5 18 -8 5 -7 9 2 15 8 4 19 3 27 -4 11 -8
13 -8 10 4 -1 7 2 15 7 16 6 1 8 -6 7 -15 -3 -13 -1 -14 12 -3 13 11 19 11 31
1 13 -11 15 -9 11 11 -3 13 -5 26 -5 29 -1 3 -5 -1 -10 -9 -5 -7 -14 -10 -20
-7 -6 4 -9 12 -5 17 3 5 10 7 15 3 13 -8 7 29 -6 38 -6 5 -5 8 4 8 7 0 11 6 8
13 -3 8 1 14 9 14 7 0 11 -4 8 -9 -3 -4 1 -5 9 -2 8 3 18 1 21 -5 4 -6 13 -8
22 -4 8 3 21 -3 29 -13 8 -11 15 -14 15 -8 0 6 -3 14 -7 18 -5 4 -9 12 -9 17
-1 5 -2 13 -3 19 0 5 -11 19 -23 30 -17 16 -18 19 -5 15 9 -4 17 -5 17 -2 0
10 -30 16 -35 7z m31 -42 c4 -7 3 -8 -4 -4 -7 4 -12 2 -12 -3 0 -6 6 -11 13
-12 9 0 9 -2 0 -6 -27 -10 -42 13 -18 29 13 10 13 10 21 -4z"/>
<path d="M830 2850 c-11 -11 -29 -17 -44 -16 -14 2 -26 -1 -26 -5 0 -9 14 -13
37 -10 21 3 25 -20 7 -40 -14 -16 -15 -22 -4 -32 10 -10 11 -9 5 2 -5 9 -4 12
3 7 6 -3 13 -2 17 4 3 5 0 10 -7 10 -8 0 -6 5 5 11 9 6 14 15 11 21 -5 7 -2 8
6 3 8 -5 11 -3 8 6 -3 8 -10 13 -16 12 -7 -2 -9 4 -5 14 4 11 8 13 11 5 2 -7
9 -9 14 -6 7 4 8 2 4 -4 -9 -15 -1 -15 27 -1 19 8 20 8 7 -3 -8 -7 -15 -20
-15 -28 0 -8 7 -21 15 -28 13 -10 12 -11 -5 -6 -12 3 -15 2 -9 -3 6 -4 10 -16
9 -25 -2 -10 2 -15 10 -12 7 3 15 -2 19 -12 5 -14 4 -15 -9 -4 -8 7 -15 8 -15
2 0 -5 6 -15 14 -21 21 -18 31 5 14 32 -7 12 -13 31 -13 42 1 11 -4 23 -10 28
-7 5 -7 9 0 15 6 4 11 18 10 31 0 31 -48 38 -75 11z m60 -4 c-4 -4 -16 -4 -26
2 -16 9 -14 10 8 9 15 -1 23 -6 18 -11z"/>
<path d="M1320 2845 c-8 -9 -8 -15 -2 -15 12 0 26 19 19 26 -2 2 -10 -2 -17
-11z"/>
<path d="M1190 2820 c0 -5 5 -10 10 -10 6 0 10 5 10 10 0 6 -4 10 -10 10 -5 0
-10 -4 -10 -10z"/>
<path d="M845 2790 c-10 -11 -15 -20 -10 -20 4 0 2 -7 -5 -15 -12 -15 -5 -39
10 -30 4 3 13 -2 20 -10 13 -15 8 -29 -11 -31 -22 -3 -23 -5 -9 -14 18 -12 33
-13 26 -2 -2 4 4 8 15 8 19 0 19 -1 3 -13 -16 -12 -12 -17 9 -14 4 0 7 -5 8
-11 0 -7 5 -2 11 12 6 15 12 20 15 12 3 -6 9 -10 13 -7 5 3 18 -5 29 -17 14
-14 17 -24 10 -29 -7 -4 -5 -8 6 -12 9 -4 13 -3 10 3 -3 6 -2 10 2 10 5 0 13
-10 18 -22 6 -13 17 -22 25 -20 11 3 11 0 1 -12 -11 -14 -15 -14 -36 0 -15 10
-25 11 -28 4 -3 -6 -4 -5 -3 2 2 7 12 12 22 10 17 -2 17 -1 2 8 -9 5 -23 7
-32 4 -12 -5 -13 -11 -5 -27 10 -21 9 -21 -5 -3 -9 10 -13 23 -9 29 3 5 0 7
-8 5 -8 -3 -12 -12 -10 -19 2 -8 4 -20 4 -26 0 -7 4 -13 9 -13 5 0 6 -5 2 -11
-4 -8 -9 -7 -16 2 -6 10 -7 7 -3 -8 6 -23 -8 -32 -20 -13 -3 6 -11 10 -17 10
-7 0 -6 -5 1 -14 10 -12 8 -17 -9 -26 -15 -8 -25 -8 -34 -1 -7 6 -17 7 -21 3
-5 -4 -5 -1 -1 6 4 6 2 12 -3 12 -6 0 -11 -5 -11 -12 0 -9 -3 -9 -12 0 -18 18
-33 15 -18 -3 7 -9 19 -14 27 -11 7 3 13 1 13 -4 0 -6 -9 -10 -20 -10 -11 0
-20 -4 -20 -9 0 -14 34 -8 46 8 12 16 38 6 28 -11 -4 -5 5 -2 20 7 24 16 26
16 20 1 -4 -9 -9 -14 -12 -11 -3 2 -12 -4 -19 -15 -8 -11 -18 -18 -23 -15 -5
3 -15 -4 -23 -15 -14 -20 -14 -20 -32 0 -13 15 -21 17 -31 9 -15 -12 -7 -42 8
-33 6 4 5 10 -3 15 -8 5 -9 9 -4 9 19 -1 47 -28 36 -35 -6 -3 -15 -4 -20 0 -5
3 -12 1 -16 -5 -5 -9 7 -14 27 -11 4 0 6 -5 4 -12 -1 -6 -1 -9 1 -4 3 4 10 4
15 1 6 -4 8 -2 5 3 -4 6 0 16 8 23 8 7 15 9 15 4 0 -5 5 -1 11 9 6 9 14 15 19
12 10 -6 52 50 44 58 -7 6 26 52 39 55 4 1 12 2 19 2 9 0 9 3 0 12 -9 9 -8 16
5 30 16 18 39 25 29 9 -12 -19 47 -2 67 19 12 13 16 20 10 16 -16 -9 -56 12
-48 25 4 5 2 9 -2 9 -5 0 -18 7 -29 16 -18 14 -18 15 5 4 18 -9 22 -9 16 0 -4
6 1 17 11 25 16 12 22 12 42 -1 24 -16 30 -7 10 16 -11 12 -10 12 4 1 9 -7 22
-10 28 -6 7 4 6 -2 -2 -14 -7 -12 -18 -19 -25 -17 -6 3 -17 -2 -25 -11 -11
-14 -10 -15 10 -9 16 5 24 3 28 -8 3 -9 10 -13 16 -10 5 4 5 11 -2 19 -7 9 -6
16 4 24 8 7 16 8 18 4 1 -4 17 5 33 20 17 17 24 28 15 27 -34 -5 -41 0 -36 23
3 12 3 16 0 9 -5 -10 -9 -10 -20 -1 -9 8 -11 16 -5 23 7 8 4 15 -8 23 -14 9
-18 8 -18 -3 0 -8 4 -14 9 -14 5 0 7 -4 3 -9 -3 -5 -1 -12 5 -16 6 -4 8 -11 5
-16 -4 -5 -1 -9 6 -9 8 0 8 -4 -1 -15 -10 -12 -16 -13 -26 -4 -9 7 -19 8 -26
2 -15 -11 -28 -11 -47 1 -11 7 -13 5 -8 -6 3 -9 1 -20 -5 -26 -11 -11 -41 -5
-33 8 2 4 -3 17 -13 28 l-18 21 -13 -21 c-12 -20 -12 -20 -36 2 -13 12 -24 30
-24 39 -2 39 -5 51 -15 51 -6 0 -4 4 4 10 8 5 12 11 9 15 -3 3 -14 -4 -24 -15z
m10 -40 c-3 -5 -12 -10 -18 -10 -7 0 -6 4 3 10 19 12 23 12 15 0z m106 -77
c12 -16 12 -17 -2 -6 -9 7 -20 9 -24 5 -5 -4 -5 -1 -1 6 9 16 11 15 27 -5z
m182 -9 c-4 -12 -8 -13 -14 -3 -9 15 -2 32 11 24 5 -3 6 -13 3 -21z m-256
-248 c-10 -8 -18 -18 -18 -23 1 -4 -3 -9 -9 -9 -5 -1 -12 -2 -15 -3 -10 -2
-15 -1 -15 4 0 3 3 6 8 6 4 1 18 10 31 20 13 11 26 19 30 19 3 0 -2 -7 -12
-14z m-67 -50 c0 -2 -8 -10 -17 -17 -16 -13 -17 -12 -4 4 13 16 21 21 21 13z"/>
<path d="M1110 2780 c0 -5 5 -10 10 -10 6 0 10 5 10 10 0 6 -4 10 -10 10 -5 0
-10 -4 -10 -10z"/>
<path d="M835 2650 c-4 -6 -4 -14 -1 -17 3 -3 1 -12 -5 -20 -14 -16 -21 -63
-10 -63 16 0 20 14 8 29 -11 14 -10 14 6 2 19 -15 24 -2 5 17 -9 9 -9 12 1 12
8 0 10 8 7 23 -3 12 -3 16 0 9 3 -6 10 -10 14 -7 5 3 12 0 16 -6 4 -7 3 -9 -3
-6 -5 3 -10 -6 -10 -22 0 -20 4 -28 14 -24 7 3 10 10 7 15 -4 6 2 6 14 -1 15
-8 23 -7 32 4 7 8 19 15 26 15 19 0 18 15 -3 31 -15 12 -16 12 -10 -3 3 -10 2
-20 -4 -23 -5 -4 -9 -3 -8 2 1 4 1 15 0 23 -1 12 -4 11 -12 -3 -10 -17 -12
-17 -44 3 -23 14 -36 17 -40 10z m91 -35 c-3 -24 -12 -27 -27 -8 -8 9 -9 14
-2 10 6 -4 14 -3 18 3 9 14 14 12 11 -5z"/>
<path d="M1031 2647 c-6 -8 -6 -18 -1 -27 5 -8 7 -17 4 -21 -8 -14 25 -17 43
-4 10 8 13 15 6 15 -6 0 -15 -5 -19 -11 -4 -8 -9 -7 -15 2 -5 8 -2 20 7 30 13
15 13 17 0 22 -8 3 -19 0 -25 -6z"/>
<path d="M773 2582 c21 -23 21 -31 0 -49 -13 -11 -14 -13 -3 -10 8 2 31 -9 52
-25 22 -17 42 -26 52 -22 12 5 14 10 6 19 -8 9 -8 15 0 20 6 3 8 12 4 18 -3 7
4 1 15 -13 15 -18 19 -20 15 -6 -4 11 -1 22 7 28 11 8 9 8 -5 4 -16 -6 -17 -4
-6 9 10 12 10 15 -1 16 -8 1 -18 0 -24 -1 -5 -1 -15 -3 -21 -4 -7 -1 -19 -8
-28 -16 -13 -10 -20 -10 -28 -2 -7 7 -9 12 -5 12 4 0 -1 9 -10 20 -10 11 -22
20 -27 20 -5 0 -2 -8 7 -18z m113 -27 c-10 -7 -15 -18 -12 -24 4 -5 1 -13 -5
-16 -5 -4 -8 -13 -5 -21 4 -11 0 -11 -19 2 -26 17 -33 34 -14 34 5 0 7 -4 4
-10 -3 -5 0 -10 7 -10 8 0 14 9 15 20 1 13 -2 18 -9 14 -7 -4 -8 -2 -4 5 4 6
11 9 15 7 4 -3 13 -1 21 5 23 14 27 10 6 -6z"/>
<path d="M661 2426 c-9 -11 -9 -16 1 -22 34 -22 63 -12 48 17 -13 22 -33 25
-49 5z m21 -18 c-7 -7 -12 -8 -12 -2 0 14 12 26 19 19 2 -3 -1 -11 -7 -17z"/>
<path d="M706 2345 c-20 -21 -26 -23 -38 -13 -19 18 -41 21 -35 6 2 -7 9 -12
14 -11 12 2 14 -35 2 -42 -5 -4 -6 -11 -3 -17 10 -16 11 -117 1 -111 -4 2 -6
-1 -5 -9 2 -7 -4 -12 -13 -10 -9 1 -16 -5 -16 -13 0 -17 13 -20 22 -5 4 6 12
7 18 4 7 -4 9 -3 4 1 -4 5 1 17 10 27 20 22 27 55 13 63 -6 3 -10 11 -10 16 0
6 5 7 10 4 6 -3 10 -2 10 3 0 6 -7 13 -16 16 -11 4 -14 12 -9 24 4 9 8 22 8
28 0 7 12 10 31 7 36 -6 37 -6 54 -4 19 2 14 18 -8 24 -13 3 -18 1 -13 -6 4
-7 -1 -6 -10 2 -17 14 -24 26 -9 17 4 -2 14 -1 21 3 9 6 10 11 2 15 -6 4 -22
-5 -35 -19z"/>
<path d="M603 2302 c12 -13 14 -21 6 -29 -8 -8 -8 -17 1 -33 15 -29 6 -36 -27
-21 -16 7 -25 10 -21 6 4 -4 -5 -17 -20 -30 -20 -17 -24 -26 -15 -36 6 -8 9
-32 8 -54 -3 -35 -2 -38 9 -22 9 11 20 15 32 10 17 -6 17 -5 5 10 -7 9 -17 14
-22 11 -5 -3 -9 0 -9 6 0 7 7 9 16 6 8 -3 13 -2 10 3 -3 5 1 12 9 15 13 4 14
2 5 -14 -9 -16 -7 -22 5 -27 12 -4 13 -8 4 -13 -8 -6 -4 -12 12 -21 22 -11 23
-11 10 4 -7 10 -10 17 -6 17 4 0 3 6 -2 13 -5 6 -8 18 -7 25 1 6 2 17 3 23 1
8 5 8 14 0 10 -8 14 -7 15 2 0 6 3 24 5 39 3 17 -1 29 -9 32 -8 3 -14 11 -14
18 0 10 2 10 9 -1 6 -9 11 -10 15 -2 4 6 3 11 -3 11 -10 0 -9 25 2 36 13 13 7
26 -7 15 -10 -9 -15 -8 -20 4 -3 8 -11 15 -17 15 -8 0 -6 -7 4 -18z m10 -104
c12 10 16 9 20 -2 8 -19 -6 -28 -29 -19 -12 4 -15 3 -10 -5 5 -8 2 -10 -9 -6
-10 4 -15 2 -13 -6 5 -20 -16 -22 -29 -2 -9 15 -7 21 11 31 17 11 19 11 9 0
-19 -20 -15 -31 6 -17 11 6 17 19 14 27 -4 13 -3 14 5 2 8 -12 14 -12 25 -3z"/>
<path d="M680 2290 c-6 -12 -9 -24 -7 -27 3 -2 11 5 17 17 6 12 9 24 7 27 -3
2 -11 -5 -17 -17z"/>
<path d="M723 2245 c0 -8 4 -15 9 -15 4 0 8 4 8 9 0 6 -4 12 -8 15 -5 3 -9 -1
-9 -9z"/>
<path d="M515 2113 c3 -3 0 -12 -7 -20 -9 -11 -8 -18 4 -30 14 -14 16 -12 14
15 -1 17 -5 33 -9 36 -4 3 -5 3 -2 -1z"/>
<path d="M544 2065 c-12 -18 -20 -23 -27 -16 -17 17 -31 13 -17 -4 7 -8 16
-15 21 -15 15 0 48 38 41 46 -4 4 -2 4 5 0 7 -4 9 -14 6 -24 -6 -15 -5 -16 13
-2 18 14 18 14 2 -6 -21 -24 -24 -41 -5 -25 10 8 14 7 14 -4 0 -8 -5 -11 -10
-8 -6 3 -7 2 -4 -4 7 -10 -87 -12 -98 -2 -3 4 9 5 26 3 18 -2 29 -1 25 3 -13
14 -66 11 -66 -3 0 -21 41 -45 56 -33 7 6 18 8 24 4 6 -4 21 0 34 8 30 20 29
74 -2 95 -19 12 -22 11 -38 -13z"/>
<path d="M546 2034 c-7 -19 1 -34 17 -33 8 0 8 2 -1 6 -9 4 -10 8 -2 18 7 8 7
16 2 19 -6 3 -13 -1 -16 -10z"/>
<path d="M872 3184 c4 -4 2 -14 -4 -23 -10 -13 -10 -14 2 -4 9 9 19 9 32 2 33
-18 28 -5 -5 15 -18 10 -29 14 -25 10z"/>
<path d="M1400 3165 c-11 -13 -10 -14 4 -9 9 3 16 10 16 15 0 13 -6 11 -20 -6z"/>
<path d="M1070 3135 c-1 -5 -2 -13 -1 -17 0 -5 -3 -8 -9 -8 -5 0 -10 5 -10 12
0 6 -6 3 -14 -8 -10 -13 -11 -23 -4 -31 6 -7 7 -13 2 -13 -5 -1 2 -9 15 -20
12 -11 27 -18 31 -15 4 3 13 -2 20 -10 7 -8 17 -15 23 -15 5 0 -3 10 -19 22
-16 13 -33 22 -40 20 -6 -1 -11 5 -11 13 0 10 6 13 17 10 10 -3 23 1 30 10 7
8 16 13 19 10 4 -2 8 2 8 10 0 12 -4 12 -20 -2 -19 -17 -20 -17 -14 0 4 10 3
16 -2 12 -5 -3 -12 3 -14 12 -3 10 -6 14 -7 8z m4 -36 c-2 -4 2 -9 8 -12 10
-4 -32 -2 -50 2 -12 3 10 17 27 17 11 0 18 -3 15 -7z"/>
<path d="M979 3013 c-7 -10 -9 -15 -5 -11 5 4 15 0 23 -10 13 -15 13 -15 4 4
-6 12 -7 24 -4 28 3 3 4 6 1 6 -3 0 -12 -8 -19 -17z"/>
<path d="M707 2523 c-4 -3 -7 -11 -7 -17 0 -6 5 -5 12 2 6 6 9 14 7 17 -3 3
-9 2 -12 -2z"/>
<path d="M3347 2203 c-3 -5 -2 -15 3 -23 5 -8 5 -19 0 -25 -6 -8 -5 -12 3 -12
8 0 13 11 12 28 -1 31 -10 45 -18 32z"/>
<path d="M3360 2110 c-13 -9 -13 -10 0 -10 13 0 13 -1 0 -10 -13 -9 -13 -11 0
-20 13 -9 13 -10 0 -10 -9 0 -11 -3 -5 -8 6 -4 11 -15 13 -26 3 -14 -1 -17
-15 -12 -16 5 -16 5 1 -9 13 -10 15 -15 6 -15 -19 0 -6 -10 20 -15 22 -4 22
-4 5 15 -10 11 -14 20 -9 20 6 0 10 9 11 20 1 11 -2 20 -6 20 -5 0 -8 16 -6
35 1 19 1 35 1 35 -1 0 -8 -5 -16 -10z"/>
<path d="M3374 1680 c0 -13 4 -16 10 -10 7 7 7 13 0 20 -6 6 -10 3 -10 -10z"/>
<path d="M3375 1640 c3 -5 8 -10 11 -10 2 0 4 5 4 10 0 6 -5 10 -11 10 -5 0
-7 -4 -4 -10z"/>
<path d="M3360 1589 c0 -5 5 -7 10 -4 6 3 10 8 10 11 0 2 -4 4 -10 4 -5 0 -10
-5 -10 -11z"/>
<path d="M3150 1811 c0 -6 4 -12 8 -15 5 -3 9 1 9 9 0 8 -4 15 -9 15 -4 0 -8
-4 -8 -9z"/>
<path d="M3114 1732 c3 -6 2 -13 -4 -17 -17 -11 -11 -24 10 -20 11 2 22 -1 25
-6 4 -5 11 -7 16 -4 5 4 9 1 9 -4 0 -15 -13 -14 -29 2 -11 10 -12 9 -6 -3 5
-8 5 -12 0 -8 -4 4 -14 3 -22 -4 -16 -13 -28 -3 -28 25 0 11 -7 22 -15 25 -11
4 -13 2 -5 -9 18 -24 12 -54 -10 -54 -11 0 -20 -7 -20 -15 -1 -8 -6 -25 -13
-37 -7 -13 -10 -23 -6 -23 3 0 0 -8 -7 -17 -7 -10 -9 -15 -5 -11 5 4 15 3 22
-3 8 -7 14 -7 19 1 3 5 4 10 0 10 -3 0 -1 8 4 18 7 13 7 22 0 29 -6 6 -5 14 6
23 8 7 15 10 15 6 0 -4 11 1 24 9 16 11 26 13 31 5 3 -6 10 -8 15 -5 7 4 22
-18 24 -37 1 -3 4 -9 8 -13 8 -9 5 16 -5 32 -4 6 -3 14 3 18 6 4 8 11 5 16 -4
5 -2 9 4 9 13 0 8 24 -9 44 -9 12 -16 14 -24 6 -13 -13 -29 -13 -21 -1 3 5 0
13 -6 17 -7 4 -9 3 -5 -4z m55 -26 c11 -14 6 -15 -27 -7 -4 1 8 21 12 21 2 0
9 -6 15 -14z m-1 -51 c3 -3 -4 -4 -16 -2 -12 2 -24 6 -28 10 -4 3 4 4 16 2 12
-2 25 -7 28 -10z m-126 -64 c-5 -3 -8 -14 -6 -24 1 -9 -1 -15 -6 -12 -5 3 -7
13 -5 23 2 9 4 21 4 25 1 5 6 5 12 1 7 -4 7 -9 1 -13z"/>
<path d="M3090 1678 c0 -4 4 -8 9 -8 6 0 12 4 15 8 3 5 -1 9 -9 9 -8 0 -15 -4
-15 -9z"/>
<path d="M2965 1451 c-3 -5 -1 -13 5 -16 8 -5 7 -12 -2 -23 -10 -14 -10 -15 2
-5 7 7 14 22 15 33 2 21 -10 27 -20 11z"/>
<path d="M3093 1561 c-18 -15 -20 -20 -8 -25 14 -5 28 8 31 32 3 15 4 15 -23
-7z"/>
<path d="M3110 1481 c0 -14 29 -21 36 -9 4 7 3 8 -4 4 -7 -4 -12 -2 -12 3 0 6
-4 11 -10 11 -5 0 -10 -4 -10 -9z"/>
<path d="M3039 1018 c-6 -21 -5 -38 1 -38 5 0 8 9 7 20 -1 17 -5 26 -8 18z"/>
<path d="M2853 997 c-3 -6 -1 -7 4 -4 18 11 23 -20 7 -40 -14 -17 -14 -16 -4
6 9 18 9 22 -1 19 -6 -2 -16 -14 -20 -26 -8 -20 -6 -22 18 -19 14 2 31 11 38
20 6 9 15 14 18 11 3 -3 4 1 3 10 -1 8 -5 19 -9 23 -11 11 -47 11 -54 0z m41
-33 c-20 -29 -29 -32 -14 -4 6 11 8 20 5 20 -4 0 -3 5 0 10 4 6 11 8 16 5 5
-4 2 -17 -7 -31z"/>
<path d="M2949 913 c-1 -5 -1 -11 0 -15 0 -5 -3 -8 -8 -8 -5 0 -12 -8 -15 -17
-6 -15 -5 -15 13 1 11 10 18 22 16 26 -3 5 1 11 7 13 10 4 10 6 1 6 -7 1 -14
-2 -14 -6z"/>
<path d="M2817 845 c3 -8 -2 -18 -11 -21 -12 -5 -14 -10 -6 -19 8 -9 7 -14 -2
-18 -7 -2 -9 -8 -5 -13 5 -5 13 -1 18 9 6 9 16 14 22 11 7 -4 9 -3 4 1 -4 5 0
16 9 26 15 17 13 21 -18 32 -12 4 -15 2 -11 -8z m16 -25 c-10 -11 -19 -20 -21
-20 -1 0 2 9 8 20 6 11 15 20 20 20 6 0 2 -9 -7 -20z"/>
<path d="M2879 843 c-13 -15 -12 -15 9 -4 23 12 28 21 13 21 -5 0 -15 -7 -22
-17z"/>
<path d="M1650 2008 c-63 -25 -130 -64 -131 -78 -1 -8 -1 -49 0 -90 1 -94 2
-385 1 -385 -3 0 -11 -186 -11 -245 0 -36 2 -132 5 -215 3 -82 8 -220 10 -305
3 -85 5 -155 6 -155 1 0 3 -49 5 -110 2 -60 7 -150 10 -200 4 -50 7 -106 6
-125 -1 -19 2 -40 7 -46 13 -20 47 -32 67 -24 11 4 32 4 47 -1 16 -4 30 -3 33
2 4 5 21 3 41 -6 29 -12 34 -12 34 0 0 11 8 13 33 8 40 -9 167 -7 224 2 35 6
54 20 109 77 37 38 63 73 58 76 -6 4 -10 133 -11 332 -1 179 -4 402 -7 495
-12 320 -15 420 -20 591 -3 138 -7 179 -22 209 -10 21 -19 61 -20 89 -3 78
-13 109 -35 103 -11 -3 -19 0 -19 6 0 6 -7 2 -15 -9 -13 -17 -14 -17 -9 -1 6
17 -4 18 -182 16 -104 -1 -200 -6 -214 -11z m158 -173 c0 -17 -6 -25 -17 -24
-11 0 -12 2 -3 6 10 4 10 8 0 21 -10 12 -10 14 0 8 6 -4 12 -2 12 3 0 6 2 11
4 11 2 0 4 -11 4 -25z m96 10 c3 -8 1 -15 -4 -15 -6 0 -10 7 -10 15 0 8 2 15
4 15 2 0 6 -7 10 -15z m-22 -19 c24 -22 26 -27 15 -50 -13 -27 -22 -32 -32
-17 -3 6 3 14 12 20 14 8 15 10 3 10 -15 0 -50 -22 -50 -31 0 -5 20 -8 57 -9
14 -1 21 -7 20 -19 -1 -10 -5 -16 -10 -13 -5 3 -7 0 -5 -8 3 -8 10 -13 14 -12
5 1 9 -38 9 -85 0 -49 4 -90 10 -94 6 -5 4 -8 -5 -8 -13 0 -13 -1 0 -10 11 -7
11 -10 2 -10 -8 0 -10 -5 -5 -12 4 -7 8 -33 9 -58 1 -25 3 -45 4 -45 2 0 4
-31 6 -70 3 -66 10 -130 14 -130 1 0 3 -8 5 -17 2 -12 -2 -15 -13 -10 -15 5
-15 4 -3 -11 11 -14 11 -20 0 -34 -12 -15 -12 -16 2 -11 9 4 22 1 28 -5 9 -9
6 -16 -11 -29 -19 -14 -21 -19 -10 -30 11 -11 12 -10 7 5 -4 10 -2 17 4 17 6
0 10 -3 10 -7 -3 -18 2 -27 9 -17 5 9 11 8 20 -2 10 -11 10 -14 0 -14 -6 0 -3
-7 8 -15 18 -15 18 -15 0 -8 -15 5 -17 3 -10 -8 5 -8 10 -25 10 -39 1 -14 3
-25 4 -25 1 0 4 -10 5 -23 2 -18 0 -20 -11 -11 -9 7 -14 7 -14 1 0 -5 6 -15
14 -21 8 -7 14 -21 13 -31 -1 -13 -5 -16 -13 -10 -6 6 -14 7 -17 3 -4 -3 -13
0 -22 7 -15 12 -22 0 -8 -14 11 -11 12 -36 1 -36 -6 0 -8 7 -5 15 4 8 2 17 -3
20 -5 3 -8 22 -5 41 4 30 2 34 -10 24 -7 -6 -11 -19 -8 -27 4 -11 -1 -9 -15 5
-12 12 -28 22 -34 22 -7 -1 -2 -10 11 -21 13 -11 21 -22 17 -26 -9 -9 -47 38
-40 49 3 5 12 7 20 4 7 -3 16 -1 19 3 10 18 -28 21 -47 4 -18 -16 -18 -16 -12
0 3 10 1 17 -5 17 -6 0 -11 -4 -11 -10 0 -5 -5 -10 -11 -10 -8 0 -8 5 1 15 15
18 0 20 -20 3 -12 -11 -12 -10 -1 5 7 9 9 17 3 17 -5 0 -17 -10 -27 -22 -16
-23 -16 -23 -2 2 9 15 23 24 35 23 11 -1 25 4 32 12 10 12 6 14 -26 9 -35 -4
-37 -3 -19 10 11 8 17 18 13 21 -4 4 -14 0 -23 -9 -9 -9 -19 -16 -23 -16 -4 0
5 11 20 24 15 13 24 27 20 32 -4 4 -1 4 6 0 8 -5 11 -1 8 16 -3 13 -5 27 -5
31 -1 5 -5 6 -11 2 -5 -3 -7 -12 -3 -20 3 -8 1 -15 -4 -15 -10 0 -13 14 -14
57 -1 12 -6 20 -13 19 -6 -2 -7 -1 -3 2 4 2 3 10 -3 17 -8 10 -4 12 19 9 18
-2 34 3 42 13 12 14 11 15 -9 9 -27 -9 -28 3 -4 44 14 23 21 27 30 18 7 -7 12
-8 12 -4 0 10 -46 66 -52 63 -2 -1 0 2 4 7 11 13 10 28 0 22 -5 -3 -9 1 -9 9
0 11 4 12 13 4 10 -8 12 -5 10 15 -1 14 -6 29 -10 34 -4 4 -7 3 -6 -3 5 -21
-1 -29 -9 -16 -7 10 -4 19 7 29 16 12 15 13 -3 6 -11 -4 -30 -7 -42 -7 -22 1
-27 -16 -8 -29 6 -5 6 -8 -1 -8 -6 0 -17 7 -25 16 -10 13 -10 17 2 25 12 7 7
13 -11 11 -3 0 -6 12 -5 28 0 16 2 28 5 28 20 -1 30 3 25 12 -3 5 -13 7 -23 4
-14 -5 -14 -4 -2 4 8 6 17 9 21 6 4 -2 6 7 5 20 -1 18 -4 22 -13 14 -7 -6 -13
-8 -13 -4 0 15 -2 22 -11 32 -5 6 -6 14 -2 17 11 11 10 57 -2 57 -5 0 -4 4 4
9 8 5 9 11 3 15 -8 5 -9 41 -1 41 1 0 3 14 4 30 5 49 5 51 15 33 10 -17 43
-15 68 5 9 7 16 7 24 -1 15 -15 38 -16 38 -2 0 6 -6 9 -12 8 -7 -2 -12 5 -12
15 2 20 -7 22 -23 6 -8 -8 -14 -6 -22 9 -9 17 -7 19 18 16 26 -3 29 0 27 20
-3 26 18 26 28 0 3 -8 13 -14 22 -14 13 0 11 6 -10 25 -34 32 -20 32 16 1z
m-142 -81 c0 -5 -5 -3 -10 5 -5 8 -10 20 -10 25 0 6 5 3 10 -5 5 -8 10 -19 10
-25z m34 3 c-3 -4 -11 -8 -17 -7 -9 0 -9 2 0 5 7 3 9 13 6 22 -4 14 -3 14 5 2
6 -8 8 -18 6 -22z m249 -27 c-2 -6 2 -11 9 -11 6 0 8 -3 5 -7 -4 -3 -1 -13 6
-21 10 -13 9 -14 -9 -2 -12 7 -21 21 -19 29 1 9 -3 20 -9 24 -7 6 -6 7 4 4 8
-2 14 -10 13 -16z m12 -61 c3 -5 1 -10 -4 -10 -6 0 -11 -5 -11 -11 0 -5 4 -8
8 -5 14 8 7 -40 -8 -59 -14 -17 -13 -18 5 -11 15 5 17 4 8 -5 -15 -15 -38 -2
-24 15 6 7 7 17 3 21 -4 5 -1 5 6 1 6 -4 12 -2 12 3 0 6 -4 11 -8 11 -5 0 -8
14 -8 30 0 30 9 39 21 20z m11 -146 c-1 -8 -5 -17 -9 -20 -4 -4 -2 -14 5 -21
15 -18 18 -54 5 -46 -6 4 -8 0 -5 -9 4 -8 2 -21 -3 -29 -9 -15 -10 -13 -12 38
-1 17 -5 35 -10 39 -4 4 0 16 10 26 9 11 11 18 5 18 -7 0 -12 4 -12 8 0 5 6 9
14 9 7 0 13 -6 12 -13z m99 -53 c3 -5 2 -12 -3 -15 -5 -3 -9 1 -9 9 0 17 3 19
12 6z m-91 -99 c2 -4 -4 -8 -14 -8 -10 0 -16 4 -14 8 3 4 9 8 14 8 5 0 11 -4
14 -8z m-328 -48 c1 -9 0 -13 -4 -10 -3 4 -7 14 -8 22 -1 9 0 13 4 10 3 -4 7
-14 8 -22z m328 10 c9 -24 2 -26 -12 -4 -7 11 -8 20 -3 20 5 0 12 -7 15 -16z
m-3 -41 c13 -16 12 -17 -3 -4 -10 7 -18 15 -18 17 0 8 8 3 21 -13z m-241 -48
c0 -8 -4 -15 -10 -15 -5 0 -7 7 -4 15 4 8 8 15 10 15 2 0 4 -7 4 -15z m-60
-15 c0 -5 -5 -10 -11 -10 -5 0 -7 5 -4 10 3 6 8 10 11 10 2 0 4 -4 4 -10z m38
-22 c-2 -6 -14 -15 -27 -19 -14 -6 -20 -5 -16 1 3 6 13 10 21 10 8 0 12 5 9
10 -3 6 -1 10 5 10 7 0 10 -5 8 -12z m-8 -38 c0 -5 -8 -10 -17 -10 -15 0 -16
2 -3 10 19 12 20 12 20 0z m-13 -122 c-3 -8 -6 -5 -6 6 -1 11 2 17 5 13 3 -3
4 -12 1 -19z m17 -26 c-5 -4 -12 -11 -15 -15 -3 -5 -9 -2 -12 5 -3 9 3 14 15
15 11 1 16 -1 12 -5z m6 -137 c-15 -18 1 -20 19 -2 10 10 11 9 6 -5 -4 -10
-13 -18 -20 -18 -7 0 -16 -6 -19 -12 -2 -7 -3 -2 -1 12 2 14 4 28 4 33 1 4 6
7 12 7 8 0 8 -5 -1 -15z m79 -37 c26 -29 30 -31 47 -18 11 9 15 10 10 3 -4 -7
-2 -13 3 -13 6 0 11 -5 11 -11 0 -8 -4 -8 -13 0 -10 8 -19 4 -36 -19 -12 -17
-27 -30 -34 -30 -8 0 -7 4 3 10 10 6 11 10 3 10 -7 0 -13 5 -13 11 0 8 4 9 13
0 8 -6 17 -8 20 -4 11 10 8 33 -4 33 -5 0 -7 -5 -3 -12 4 -7 3 -8 -5 -4 -6 4
-9 12 -5 17 6 10 -13 39 -26 39 -4 0 -10 -10 -13 -22 -4 -12 -9 -20 -12 -16
-5 5 14 58 22 58 2 0 16 -14 32 -32z m-25 -31 c-3 -8 -12 -18 -20 -21 -11 -4
-10 0 3 18 20 26 27 28 17 3z m-57 -2 c0 -8 -4 -12 -9 -9 -5 3 -6 10 -3 15 9
13 12 11 12 -6z m207 -10 c-4 -10 0 -13 15 -10 14 3 18 0 14 -12 -4 -10 -8
-11 -13 -3 -4 6 -11 11 -16 10 -5 0 -10 6 -12 14 -2 9 1 16 7 16 6 0 8 -7 5
-15z m-26 -27 c7 2 15 -4 18 -12 3 -9 10 -13 15 -10 5 3 9 0 9 -5 0 -16 -20
-13 -26 4 -4 8 -10 15 -16 15 -5 0 -6 -5 -2 -12 4 -7 3 -8 -4 -4 -7 4 -12 2
-12 -3 0 -6 -5 -11 -11 -11 -8 0 -9 4 0 13 11 14 5 27 -11 27 -5 0 -6 -4 -3
-10 3 -6 -1 -7 -10 -4 -10 4 -15 2 -13 -7 2 -8 -7 -14 -22 -15 -22 -2 -22 -2
-2 3 12 2 20 9 17 14 -4 5 1 12 9 15 9 3 13 11 10 16 -4 6 4 4 17 -3 13 -7 30
-12 37 -11z m-28 -53 c0 -1 -12 -2 -26 -2 -17 0 -22 2 -13 7 10 7 39 3 39 -5z
m35 5 c-3 -5 -11 -10 -16 -10 -6 0 -7 5 -4 10 3 6 11 10 16 10 6 0 7 -4 4 -10z
m30 -19 c-3 -6 -11 -8 -17 -5 -7 5 -9 1 -5 -9 3 -10 2 -17 -4 -17 -6 0 -9 8
-7 18 2 9 10 16 16 15 7 -2 12 2 12 9 0 6 3 9 6 5 3 -3 3 -11 -1 -16z m-75 -5
c0 -3 -4 -8 -10 -11 -5 -3 -10 -1 -10 4 0 6 5 11 10 11 6 0 10 -2 10 -4z m20
-11 c0 -8 -4 -15 -10 -15 -5 0 -7 7 -4 15 4 8 8 15 10 15 2 0 4 -7 4 -15z
m-64 -7 c4 -7 3 -8 -4 -4 -7 4 -12 2 -12 -5 0 -7 -3 -10 -6 -6 -6 5 3 27 11
27 2 0 7 -5 11 -12z m87 -25 c-7 -2 -19 -2 -25 0 -7 3 -2 5 12 5 14 0 19 -2
13 -5z m-112 -26 c-10 -9 -11 -8 -5 6 3 10 9 15 12 12 3 -3 0 -11 -7 -18z m88
7 c3 -4 -1 -5 -9 -2 -8 3 -20 -2 -25 -9 -9 -12 -11 -11 -11 5 0 14 6 19 19 16
11 -2 22 -6 26 -10z m-9 -54 c8 -5 11 -10 5 -10 -5 0 -17 5 -25 10 -8 5 -10
10 -5 10 6 0 17 -5 25 -10z"/>
<path d="M1839 1802 c9 -7 10 -11 2 -15 -7 -4 -8 -5 0 -3 15 2 13 20 -3 24
-10 3 -10 2 1 -6z"/>
<path d="M1789 1733 c-1 -5 -1 -11 -1 -14 2 -10 -51 -5 -68 6 -13 7 -13 6 -2
-7 7 -9 9 -18 5 -20 -4 -3 -3 -3 4 -2 7 2 15 -1 18 -7 4 -5 11 -6 17 -3 6 4 5
10 -3 15 -10 6 -10 9 -2 9 6 0 15 -5 18 -10 4 -7 13 -6 27 1 16 9 19 8 12 -3
-6 -10 -5 -11 8 -1 8 7 18 10 21 6 4 -3 10 2 13 11 5 12 9 14 14 6 5 -8 10 -7
18 3 9 11 8 13 -6 12 -9 -1 -27 -6 -39 -13 -17 -9 -22 -9 -27 3 -6 16 -25 21
-27 8z m21 -13 c0 -5 -2 -10 -4 -10 -3 0 -8 5 -11 10 -3 6 -1 10 4 10 6 0 11
-4 11 -10z"/>
<path d="M1855 1700 c-3 -5 -10 -8 -15 -5 -5 3 -14 -4 -20 -15 -6 -11 -7 -21
-3 -21 28 -4 39 -3 50 4 7 5 10 13 7 18 -3 5 -1 9 4 9 5 0 9 -18 8 -40 -1 -40
-16 -58 -16 -19 0 11 -4 18 -10 14 -5 -3 -7 -13 -4 -23 5 -14 4 -14 -4 -3 -9
12 -13 12 -26 2 -14 -11 -16 -11 -16 3 0 10 -4 15 -9 11 -6 -3 -8 -14 -6 -25
3 -14 0 -18 -8 -13 -7 4 -5 -2 3 -12 12 -15 12 -17 1 -10 -10 6 -12 4 -6 -6 5
-8 4 -11 0 -6 -5 4 -18 -1 -29 -10 -20 -18 -20 -17 -6 2 14 18 14 19 -2 7 -9
-8 -22 -11 -27 -8 -5 4 -12 2 -15 -3 -4 -5 -2 -12 4 -16 6 -4 7 -12 4 -18 -5
-8 -3 -8 7 1 22 20 27 14 24 -30 -4 -60 -4 -60 -15 -53 -6 4 -7 -1 -3 -11 5
-13 3 -15 -8 -9 -12 8 -12 6 0 -8 16 -20 32 -13 25 11 -5 13 -4 14 4 3 5 -7
15 -10 21 -7 6 4 11 4 10 -1 -3 -20 2 -25 16 -13 10 9 15 9 16 1 2 -15 6 -30
9 -33 8 -9 7 -64 -1 -74 -11 -13 40 -74 62 -74 17 0 -6 25 -24 25 -7 0 -11 9
-10 20 1 11 -4 23 -10 27 -9 6 -9 8 1 8 8 0 11 9 8 25 -3 14 -1 23 5 20 5 -3
6 1 3 9 -3 9 -1 16 6 16 6 0 8 4 5 10 -3 6 1 7 10 3 12 -4 13 -8 5 -13 -9 -5
-9 -9 -1 -14 6 -4 11 -2 11 5 0 8 4 8 15 -1 22 -18 31 -4 12 18 -18 19 -23 37
-9 28 4 -2 8 6 8 19 0 18 -3 22 -12 14 -10 -8 -12 -5 -11 10 1 14 6 20 16 16
10 -4 11 -2 4 7 -5 7 -9 40 -8 73 1 33 -3 66 -8 73 -6 8 -5 12 4 12 11 0 11 2
-1 10 -8 5 -10 10 -3 10 18 0 8 32 -14 47 -15 10 -23 11 -28 3z m11 -17 c-2
-9 -12 -17 -23 -18 -14 -1 -19 3 -16 12 3 7 9 11 13 8 5 -3 11 -1 15 5 9 15
14 12 11 -7z m-16 -85 c0 -6 -8 -7 -17 -3 -15 5 -16 4 -5 -7 11 -11 16 -10 28
6 8 12 14 15 14 7 0 -10 3 -11 13 -2 11 9 13 -1 11 -52 -2 -34 -5 -75 -6 -92
-2 -22 1 -29 11 -27 12 3 12 0 1 -13 -11 -13 -10 -19 6 -37 19 -22 19 -22 -11
1 l-29 22 -18 -23 c-10 -13 -18 -20 -18 -15 0 16 -2 23 -12 40 -8 15 -12 16
-24 6 -12 -10 -15 -10 -12 1 2 8 -3 14 -11 15 -17 0 -28 25 -12 25 6 0 11 5
11 11 0 5 -6 7 -12 3 -10 -6 -10 -5 -1 8 7 8 10 18 6 22 -12 12 -10 46 4 57 7
6 13 8 13 4 0 -4 6 -2 14 4 8 7 13 21 11 32 -2 11 0 17 5 14 5 -3 11 -1 15 5
7 12 25 4 25 -12z"/>
<path d="M1813 1584 c6 -11 -29 -51 -41 -46 -6 2 -7 -34 -2 -40 8 -12 7 -45
-3 -57 -9 -11 -9 -13 0 -8 6 4 14 3 18 -3 4 -6 10 -8 15 -5 5 3 15 -4 24 -16
9 -14 19 -18 28 -13 7 5 16 9 21 9 7 0 9 7 5 23 -4 21 -3 58 2 62 4 3 -2 13
-12 23 -12 11 -18 13 -18 5 0 -9 -4 -8 -11 2 -9 13 -10 12 -5 -3 3 -10 2 -15
-4 -12 -5 3 -8 16 -6 28 3 12 5 24 5 26 1 2 10 -4 21 -14 22 -20 28 -8 8 14
-11 11 -10 12 1 6 10 -6 12 -4 6 5 -5 9 -4 11 4 6 6 -4 9 -12 6 -17 -4 -5 -2
-9 4 -9 5 0 9 8 8 19 -1 19 -12 22 -35 7 -7 -4 -20 -2 -29 6 -9 7 -14 8 -10 2z
m10 -26 c-20 -33 -3 -78 22 -58 17 14 22 3 20 -35 -2 -16 2 -36 9 -44 8 -11 8
-13 -1 -8 -6 4 -15 2 -18 -4 -5 -7 -16 -2 -32 13 -13 13 -27 22 -31 20 -3 -1
-7 10 -8 25 -1 16 -2 28 -4 28 -1 0 -3 10 -4 22 -1 12 1 20 4 18 4 -3 15 4 25
15 20 22 30 26 18 8z"/>
<path d="M1790 1521 c-7 -14 -7 -22 0 -26 6 -4 8 -11 5 -16 -4 -5 -1 -9 6 -9
8 0 8 -5 -2 -17 -7 -10 -9 -15 -4 -10 4 4 19 -3 32 -15 13 -12 23 -20 24 -17
5 26 3 87 -3 83 -5 -3 -6 -10 -3 -15 4 -5 3 -9 -2 -9 -13 1 -44 50 -38 60 3 6
4 10 1 10 -3 0 -10 -9 -16 -19z m47 -69 c-4 -2 -2 -11 5 -20 9 -12 6 -11 -10
2 -12 11 -20 22 -17 24 3 3 -2 17 -11 31 -15 23 -13 23 12 -4 16 -16 25 -32
21 -33z"/>
<path d="M1877 1533 c-10 -9 -9 -23 1 -23 5 0 9 7 9 15 0 17 -1 18 -10 8z"/>
<path d="M1720 1680 c-16 -10 -22 -38 -9 -46 9 -5 41 20 34 28 -2 2 4 4 15 4
10 0 16 -4 14 -8 -3 -4 0 -8 7 -8 8 0 9 -3 0 -13 -6 -8 -8 -16 -5 -19 3 -3 -3
-5 -13 -4 -11 0 -18 -5 -17 -15 1 -9 -5 -16 -12 -16 -17 0 -1 32 24 46 9 5 13
13 9 18 -5 4 -17 -2 -27 -14 -9 -12 -19 -20 -22 -18 -2 2 -4 -6 -4 -18 0 -28
16 -39 35 -24 8 7 17 11 20 10 3 -2 7 2 7 7 1 6 3 12 4 15 1 3 3 8 4 13 4 21
18 32 30 23 8 -7 17 -6 26 1 13 8 12 9 -1 5 -21 -7 -39 11 -32 30 6 16 -27 15
-39 -1 -4 -6 -12 -5 -20 2 -8 6 -19 7 -28 2z m15 -10 c-3 -5 -12 -10 -18 -10
-7 0 -6 4 3 10 19 12 23 12 15 0z m32 -75 c0 -8 -4 -12 -9 -9 -5 3 -6 10 -3
15 9 13 12 11 12 -6z"/>
<path d="M1750 1390 c0 -5 5 -10 10 -10 6 0 10 5 10 10 0 6 -4 10 -10 10 -5 0
-10 -4 -10 -10z"/>
<path d="M1862 1356 c4 -5 3 -15 -3 -22 -7 -8 -7 -14 1 -19 5 -3 10 -11 10
-16 0 -6 -3 -8 -7 -6 -5 3 -9 -6 -9 -19 -1 -13 2 -22 6 -19 4 2 15 -4 24 -14
17 -19 7 -39 -13 -26 -5 3 -12 1 -16 -4 -3 -6 -13 -8 -23 -5 -14 5 -14 3 2
-10 11 -9 25 -16 30 -15 6 0 5 3 -2 6 -6 2 -9 9 -6 15 3 5 13 0 21 -11 8 -12
19 -21 25 -21 6 0 6 6 -2 15 -7 9 -10 18 -6 22 3 3 6 0 6 -8 0 -12 2 -12 9 0
6 9 11 10 15 2 4 -6 2 -11 -4 -11 -6 0 -9 -4 -6 -9 3 -5 -1 -14 -9 -21 -11 -9
-15 -9 -15 -1 0 7 -5 9 -11 5 -8 -5 -8 -9 1 -14 8 -5 9 -9 1 -11 -7 -3 -7 -9
-1 -19 8 -13 10 -13 10 2 0 9 4 19 9 23 6 3 9 -4 8 -15 -1 -18 -9 -24 -29 -21
-12 1 -4 -38 9 -43 7 -3 10 1 7 8 -3 7 1 18 9 24 11 9 14 8 14 -3 0 -8 -4 -12
-9 -9 -4 3 -8 0 -8 -5 0 -6 5 -11 11 -11 5 0 7 -5 4 -11 -4 -6 -14 -8 -23 -4
-9 3 -13 3 -9 -1 4 -4 2 -13 -4 -21 -9 -9 -8 -13 0 -13 6 0 11 5 11 11 0 5 5
7 10 4 6 -3 10 -1 10 6 0 7 3 10 6 7 3 -4 1 -16 -5 -27 -10 -17 -9 -20 4 -15
8 4 15 1 15 -6 0 -6 -4 -9 -9 -5 -10 6 -26 -13 -18 -21 3 -3 15 4 26 15 12 12
21 16 21 10 0 -6 6 -9 13 -6 8 3 14 -1 14 -8 0 -7 -6 -11 -13 -8 -7 2 -11 -3
-11 -14 1 -10 -4 -17 -10 -15 -7 1 -13 -1 -13 -5 0 -12 20 -39 20 -28 0 6 9
21 18 33 l18 24 0 -36 c-1 -32 -2 -34 -13 -19 -7 9 -13 13 -14 7 -9 -75 -3
-92 34 -91 23 0 21 13 -5 32 -19 13 -21 17 -8 25 8 5 18 6 22 4 4 -3 8 -1 8 5
0 5 -4 12 -9 15 -4 3 -7 17 -6 31 2 14 -1 27 -5 30 -5 3 -7 14 -5 24 3 15 -1
19 -15 16 -10 -2 -24 3 -32 12 -10 13 -9 18 10 33 13 11 18 21 12 25 -5 3 -10
1 -10 -6 0 -8 -4 -8 -15 1 -12 10 -13 16 -4 26 9 11 8 18 0 28 -10 11 -8 17 6
25 10 6 12 11 5 11 -8 0 -11 9 -8 26 4 23 2 25 -17 21 -21 -6 -21 -6 -3 8 14
11 16 15 5 15 -12 0 -12 2 1 10 13 9 13 10 0 10 -13 0 -13 1 0 10 13 9 13 10
0 10 -12 0 -12 2 -2 9 11 7 11 9 -1 14 -19 7 -30 -3 -17 -17 6 -8 3 -12 -11
-13 -10 -1 -19 3 -19 8 0 6 4 8 8 5 5 -3 9 1 9 9 0 8 -3 15 -7 15 -4 0 -7 7
-7 16 0 14 2 14 14 -2 12 -16 17 -13 14 8 0 4 7 5 17 2 15 -5 15 -4 -1 6 -10
7 -21 9 -24 6 -4 -3 -13 0 -22 6 -9 7 -13 8 -9 4z m44 -112 c2 -12 -1 -13 -12
-3 -7 6 -11 16 -8 21 7 11 17 3 20 -18z m24 -124 c0 -5 -2 -10 -4 -10 -3 0 -8
5 -11 10 -3 6 -1 10 4 10 6 0 11 -4 11 -10z m5 -49 c3 -5 2 -12 -3 -15 -5 -3
-9 1 -9 9 0 17 3 19 12 6z m46 -218 c13 -16 12 -17 -3 -4 -17 13 -22 21 -14
21 2 0 10 -8 17 -17z"/>
<path d="M1807 1184 c-14 -14 -6 -21 19 -18 l26 2 -28 -29 c-16 -17 -30 -25
-34 -19 -4 6 -7 -3 -7 -19 0 -31 15 -36 45 -18 6 5 12 5 12 0 0 -4 6 2 14 13
8 11 13 29 12 40 -2 10 0 24 5 29 5 7 1 11 -9 11 -9 1 -24 4 -33 8 -8 4 -18 3
-22 0z m50 -68 c-2 -6 -14 -10 -26 -10 -14 1 -20 -3 -18 -11 3 -6 -1 -12 -9
-12 -14 0 -10 11 13 39 16 18 46 13 40 -6z"/>
<path d="M1826 1122 c-3 -5 1 -9 9 -9 8 0 12 4 9 9 -3 4 -7 8 -9 8 -2 0 -6 -4
-9 -8z"/>
<path d="M1859 1083 c-1 -5 -1 -12 0 -17 1 -5 -5 -4 -13 4 -11 8 -16 9 -17 1
-4 -36 -3 -45 9 -49 11 -3 12 0 2 19 -10 22 -10 23 4 5 19 -23 40 -12 26 13
-5 10 -6 21 -3 25 3 3 3 6 0 6 -4 0 -8 -3 -8 -7z"/>
<path d="M1836 1010 c-19 -6 -31 -50 -14 -50 7 0 12 15 9 33 -2 14 17 7 23 -9
4 -10 2 -13 -6 -8 -7 4 -8 3 -4 -5 4 -7 17 -9 29 -6 17 5 19 4 7 -4 -13 -9
-13 -11 1 -11 11 0 16 9 15 33 -1 34 -19 42 -60 27z m46 -14 c7 4 8 2 4 -5 -9
-13 -26 -5 -25 12 0 9 2 8 6 -1 2 -6 10 -9 15 -6z"/>
<path d="M1922 969 c-12 -11 -20 -24 -17 -30 8 -12 -2 -12 -26 2 -15 8 -24 7
-35 -2 -14 -11 -13 -14 1 -22 10 -5 21 -4 31 3 11 10 14 10 14 0 0 -7 7 -10
15 -7 8 4 17 1 21 -5 4 -6 3 -8 -2 -5 -6 3 -11 -4 -11 -15 -2 -20 -1 -20 14
-5 14 14 15 18 1 39 -13 19 -13 25 -2 35 10 10 14 10 17 0 3 -7 4 -2 4 11 -1
12 -2 22 -2 22 -1 0 -11 -9 -23 -21z"/>
<path d="M2029 1467 c6 -8 7 -18 3 -22 -4 -5 -1 -5 6 -1 10 6 10 11 1 22 -6 8
-14 14 -16 14 -3 0 0 -6 6 -13z"/>
<path d="M3071 936 c-9 -11 -9 -16 1 -22 7 -4 10 -4 6 1 -4 4 -3 14 3 22 6 7
9 13 6 13 -2 0 -10 -6 -16 -14z"/>
<path d="M3032 896 c2 -8 -6 -22 -17 -31 -19 -15 -19 -15 7 -4 24 11 37 49 15
49 -4 0 -7 -6 -5 -14z"/>
<path d="M2880 740 c-8 -5 -12 -12 -9 -15 4 -3 12 1 19 10 14 17 11 19 -10 5z"/>
<path d="M2829 693 c-13 -16 -12 -17 4 -4 16 13 21 21 13 21 -2 0 -10 -8 -17
-17z"/>
</g>
</svg>
